<?xml version="1.0" encoding="UTF-8"?>
<svg version="1.1" xmlns="http://www.w3.org/2000/svg" width="399" height="392">
<path d="M0 0 C1.1947142 -0.00315216 2.38942841 -0.00630432 3.62034607 -0.009552 C4.92133743 -0.00752777 6.2223288 -0.00550354 7.56274414 -0.00341797 C8.90173866 -0.00409114 10.24073307 -0.00506128 11.57972717 -0.00631714 C14.39007731 -0.00779399 17.20039573 -0.0056403 20.01074219 -0.00097656 C23.61680858 0.00471525 27.22280046 0.00144514 30.8288641 -0.00454903 C33.5954698 -0.00815966 36.36205779 -0.00701364 39.12866402 -0.00442123 C41.10627923 -0.0034275 43.08389512 -0.00647021 45.06150818 -0.009552 C46.25937454 -0.00639984 47.45724091 -0.00324768 48.69140625 0 C50.27906044 0.00119339 50.27906044 0.00119339 51.89878845 0.00241089 C54.41040039 0.12939453 54.41040039 0.12939453 56.41040039 1.12939453 C57.27104051 18.15211592 57.5596767 35.12973314 57.54321289 52.17236328 C57.543889 54.68524688 57.54486156 57.19813042 57.54611206 59.71101379 C57.54757162 64.92705927 57.54548931 70.14308742 57.54077148 75.35913086 C57.53618714 80.68401309 57.53595818 86.0088606 57.54077148 91.33374023 C57.54659148 97.83236101 57.54746789 104.33096162 57.54421616 110.82958412 C57.54355399 113.28336911 57.54435019 115.73715499 57.54669571 118.19093895 C57.56714326 145.55213421 57.56714326 145.55213421 56.41040039 153.12939453 C54.42564946 155.11414546 50.6172298 154.5443193 47.89726257 154.68380737 C47.09760533 154.72593475 46.29794809 154.76806213 45.47405881 154.8114661 C34.52820411 155.3311111 23.57602037 155.26910507 12.62060547 155.25878906 C10.17613702 155.26014699 7.73166879 155.26192911 5.28720093 155.26409912 C-0.61625562 155.26815655 -6.51970044 155.26760354 -12.42315664 155.26468648 C-17.2214855 155.2624148 -22.01981079 155.26212751 -26.81814003 155.2632103 C-27.84804764 155.26344015 -27.84804764 155.26344015 -28.89876145 155.26367464 C-30.29406672 155.2639944 -31.68937199 155.26431861 -33.08467726 155.26464723 C-46.11225782 155.26748662 -59.13983131 155.26423806 -72.16741071 155.25884686 C-83.33361587 155.25436918 -94.49981065 155.25516566 -105.66601562 155.25976562 C-118.6686256 155.26511967 -131.67122942 155.26722363 -144.67384034 155.26415336 C-146.06023776 155.26383484 -147.44663519 155.26352047 -148.83303261 155.2632103 C-149.5150013 155.26305602 -150.19696999 155.26290175 -150.89960441 155.2627428 C-155.69503083 155.26188096 -160.49045332 155.26333311 -165.28587914 155.26568985 C-171.73498077 155.2687901 -178.18406738 155.26657705 -184.63316727 155.26079559 C-186.99908859 155.25947322 -189.36501157 155.25985326 -191.73093224 155.26205826 C-194.95929029 155.26478987 -198.18758529 155.26136409 -201.41593933 155.25637817 C-202.35211741 155.2586089 -203.28829549 155.26083962 -204.25284261 155.26313794 C-217.49554078 155.22345336 -217.49554078 155.22345336 -219.58959961 153.12939453 C-219.6836944 151.10445222 -219.70703083 149.07619583 -219.703125 147.04907227 C-219.70304947 145.74779892 -219.70297394 144.44652557 -219.70289612 143.1058197 C-219.6977887 141.67487551 -219.69257269 140.24393171 -219.68725586 138.81298828 C-219.68539164 137.35710193 -219.68396776 135.90121496 -219.68296814 134.44532776 C-219.67914326 130.60660074 -219.66931325 126.76791134 -219.65826416 122.92919922 C-219.64804938 119.01481638 -219.64347038 115.10042748 -219.63842773 111.18603516 C-219.62769095 103.5004711 -219.6106149 95.81493808 -219.58959961 88.12939453 C-215.71585658 85.54090925 -211.6523973 85.85633765 -207.1741333 85.8888855 C-205.88881309 85.88632222 -205.88881309 85.88632222 -204.57752681 85.88370717 C-201.70158363 85.88040863 -198.82587292 85.891422 -195.94995117 85.90234375 C-193.8902741 85.90290779 -191.83059663 85.90259146 -189.7709198 85.90145874 C-184.17419263 85.90088393 -178.57755084 85.91265909 -172.98084354 85.92660666 C-167.1338602 85.93909256 -161.28687499 85.94028282 -155.43988037 85.94265747 C-144.36542169 85.94887853 -133.2910024 85.96529784 -122.21656108 85.98535645 C-109.60970037 86.00769596 -97.0028378 86.01870398 -84.39596224 86.02874732 C-58.46048617 86.04966351 -32.5250451 86.08485166 -6.58959961 86.12939453 C-6.59182022 85.06672867 -6.59404083 84.00406281 -6.59632874 82.90919495 C-6.61655963 72.91724562 -6.6315715 62.92530043 -6.64141178 52.9333353 C-6.64664074 47.79579887 -6.65373862 42.65827891 -6.66503906 37.52075195 C-6.67586748 32.56708043 -6.68187635 27.6134248 -6.68447685 22.65974236 C-6.68633118 20.76541837 -6.68995195 18.87109529 -6.69532967 16.97677803 C-6.7025395 14.33305067 -6.70359058 11.68938983 -6.703125 9.0456543 C-6.70672028 8.2544368 -6.71031555 7.4632193 -6.71401978 6.64802551 C-6.70158882 0.1680812 -6.37504137 0.00479552 0 0 Z " fill="#4E478A" transform="translate(219.589599609375,125.87060546875)"/>
<path d="M0 0 C2.72180044 -0.28631983 5.21520901 -0.37831034 7.93798828 -0.34057617 C8.75758026 -0.34101425 9.57717224 -0.34145233 10.42160034 -0.34190369 C13.13807778 -0.33980906 15.85394253 -0.31644665 18.5703125 -0.29296875 C20.45075137 -0.28737518 22.3311946 -0.28310396 24.2116394 -0.28010559 C29.1667279 -0.26863795 34.1215536 -0.23915435 39.07653809 -0.20599365 C44.1304163 -0.17533404 49.18433689 -0.16160906 54.23828125 -0.14648438 C64.15896979 -0.11428643 74.07946306 -0.06306699 84 0 C84.83519929 47.42273681 85.11174518 94.84281913 85.12283063 142.27203315 C85.12410982 147.38258086 85.12785129 152.49312265 85.13256836 157.60366821 C85.13879189 164.6172743 85.1386118 171.63086118 85.13431931 178.64446831 C85.13333539 181.23859076 85.13387993 183.83271437 85.13615799 186.42683601 C85.14832806 203.30795585 84.78111706 220.13640648 84 237 C83.01 237.33 82.02 237.66 81 238 C73.62195448 233.5133507 67.33252976 226.70312813 61.03125 220.81640625 C58.09225877 218.07377004 55.08539313 215.42022221 52.04296875 212.79296875 C48.44581465 209.63600177 44.9382249 206.37892928 41.41796875 203.13671875 C38.9971754 200.9003945 38.9971754 200.9003945 36 199 C36 198.34 36 197.68 36 197 C35.41750488 196.73968994 34.83500977 196.47937988 34.23486328 196.21118164 C31.84928662 194.91832105 30.19669733 193.49757373 28.2421875 191.62109375 C27.18704956 190.6163501 27.18704956 190.6163501 26.1105957 189.59130859 C25.00397583 188.52517334 25.00397583 188.52517334 23.875 187.4375 C22.34586298 185.97961775 20.81591908 184.52258132 19.28515625 183.06640625 C18.54797363 182.36402832 17.81079102 181.66165039 17.05126953 180.93798828 C14.51025521 178.53730134 11.92366209 176.19913358 9.3125 173.875 C-0.68962723 164.93111831 -0.68962723 164.93111831 -2 161 C-2.09602159 158.88875668 -2.13065553 156.77455637 -2.13371277 154.66113281 C-2.13597833 154.01548496 -2.13824388 153.36983711 -2.14057809 152.70462418 C-2.14691699 150.53743968 -2.14608881 148.37031775 -2.14526367 146.203125 C-2.14825518 144.65091877 -2.15165769 143.09871329 -2.15544128 141.54650879 C-2.16428508 137.32760732 -2.16661952 133.10872613 -2.16725707 128.88981628 C-2.1682058 125.37072154 -2.17188358 121.85163153 -2.17542917 118.3325386 C-2.18357473 110.03288788 -2.18601326 101.73324801 -2.18530273 93.43359375 C-2.18470151 84.86358687 -2.19526199 76.29364285 -2.2110464 67.72365189 C-2.22410653 60.37158537 -2.22948729 53.01953943 -2.22884732 45.6674614 C-2.22859194 41.27376853 -2.23146551 36.88013154 -2.24202538 32.4864502 C-2.25168102 28.35622185 -2.25180306 24.2261031 -2.24450874 20.09587097 C-2.24345982 18.57809795 -2.24584393 17.06031819 -2.2518692 15.54255676 C-2.25954876 13.4745299 -2.25497156 11.40688539 -2.24723816 9.33886719 C-2.24778293 8.18038269 -2.24832769 7.02189819 -2.24888897 5.82830811 C-2 3 -2 3 0 0 Z " fill="#937AFA" transform="translate(310,126)"/>
<path d="M0 0 C20.29748459 -0.11694997 40.59490053 -0.20504525 60.89265251 -0.25906086 C70.3178727 -0.2848111 79.74288318 -0.31990063 89.16796875 -0.37719727 C97.38562767 -0.42712982 105.60313467 -0.45931412 113.82094109 -0.47044247 C118.16979863 -0.47694461 122.51822166 -0.49215956 126.86693954 -0.52865028 C130.96608591 -0.56276586 135.0646217 -0.57302191 139.16389656 -0.56553841 C140.6626334 -0.56690605 142.16139214 -0.57674593 143.66000557 -0.59602737 C155.72432185 -0.74354338 164.26733383 1.73144221 173.24609375 10.0390625 C176.18969039 13.33012155 178.17648608 16.99957798 180 21 C180.5168058 22.1061969 180.5168058 22.1061969 181.04405212 23.23474121 C182.15555107 26.44996068 182.27192193 29.05478375 182.30297852 32.45507812 C182.31962051 33.73991089 182.33626251 35.02474365 182.35340881 36.34851074 C182.36197122 37.74275677 182.37046879 39.13700321 182.37890625 40.53125 C182.3950952 41.96945306 182.41227665 43.40764527 182.43040466 44.8458252 C182.47599867 48.62496908 182.51084638 52.4041279 182.54260254 56.18341064 C182.5945536 62.23188487 182.65985415 68.28019821 182.73081779 74.32847595 C182.75355439 76.43613274 182.7698877 78.54376949 182.78553772 80.65148926 C182.79902756 81.93632202 182.8125174 83.22115479 182.82641602 84.54492188 C182.83592789 85.67345581 182.84543976 86.80198975 182.85523987 87.96472168 C182.98854003 90.75971143 183.4065248 93.27330174 184 96 C184.42561543 105.68901001 183.75719971 115.34570365 183 125 C182.34 125 181.68 125 181 125 C176.8895838 116.7791676 178.46763161 102.89823652 180 94 C178.80036621 94.03029297 177.60073242 94.06058594 176.36474609 94.09179688 C138.72635153 95.00491402 101.0869593 95.11329823 63.43948984 95.12283063 C58.65804171 95.1241244 53.87659971 95.1278931 49.09515381 95.13256836 C42.56118302 95.13870703 36.02723104 95.13864912 29.49325752 95.13431931 C27.03922094 95.13331788 24.58518315 95.13392072 22.13114738 95.13615799 C18.75187712 95.13868884 15.3726735 95.13493104 11.9934082 95.12939453 C10.9877651 95.13142128 9.982122 95.13344803 8.94600487 95.13553619 C8.03858355 95.13271385 7.13116222 95.12989151 6.19624329 95.12698364 C5.40492162 95.12660662 4.61359995 95.12622959 3.79829884 95.12584114 C2 95 2 95 1 94 C0.84046361 92.1808968 0.74966516 90.35572977 0.68579102 88.53076172 C0.64413315 87.35514679 0.60247528 86.17953186 0.55955505 84.96829224 C0.52056595 83.67680267 0.48157684 82.38531311 0.44140625 81.0546875 C0.40982013 80.05985163 0.40982013 80.05985163 0.3775959 79.04491806 C-0.11129194 63.45466175 -0.11848283 47.86835694 -0.06866455 32.27209473 C-0.05814966 28.6097882 -0.05380884 24.94747374 -0.04882812 21.28515625 C-0.03832917 14.19008622 -0.02143063 7.0950462 0 0 Z " fill="#4F488B" transform="translate(212,0)"/>
<path d="M0 0 C1.39699127 0.00303635 1.39699127 0.00303635 2.82220459 0.00613403 C3.7979393 0.00438171 4.77367401 0.00262939 5.77897644 0.00082397 C9.02737167 -0.00360124 12.27571303 -0.00065172 15.52410889 0.00271606 C17.78079743 0.00204262 20.0374859 0.00107225 22.29417419 -0.00018311 C27.03985276 -0.00166146 31.78551257 0.00049668 36.53118896 0.00515747 C42.58901392 0.01081908 48.64679423 0.00759945 54.7046175 0.00158501 C59.37430653 -0.00204755 64.04398518 -0.00086907 68.71367455 0.0017128 C70.94499911 0.0023765 73.17632465 0.00157326 75.40764809 -0.00076675 C106.65319801 -0.0263125 106.65319801 -0.0263125 111.05145264 3.39334106 C112.40496826 4.81259888 112.40496826 4.81259888 113.78582764 6.26052856 C114.79038516 7.27419477 115.79559307 8.28721686 116.80145264 9.29959106 C117.70379639 10.23545044 118.60614014 11.17130981 119.53582764 12.13552856 C120.85271516 13.32072734 122.18397892 14.49036746 123.53582764 15.63552856 C127.4124384 18.99740263 131.18780666 22.46635529 134.96453857 25.9392395 C141.0503606 31.53358821 147.1687961 37.09049295 153.41082764 42.51052856 C157.37480657 45.96095557 161.2383958 49.51818216 165.10247803 53.07937622 C167.98058849 55.72689081 170.886569 58.33209005 173.84832764 60.88552856 C176.98082854 63.59734236 179.89194599 66.46940947 182.79364014 69.42459106 C185.57539474 72.15644872 188.54645427 74.63421616 191.53582764 77.13552856 C191.20582764 78.12552856 190.87582764 79.11552856 190.53582764 80.13552856 C125.19582764 80.13552856 59.85582764 80.13552856 -7.46417236 80.13552856 C-8.84856293 77.36674743 -8.59139474 75.12287921 -8.59356689 72.02444458 C-8.59671906 70.73873062 -8.59987122 69.45301666 -8.6031189 68.12834167 C-8.60132736 66.71537238 -8.59927597 65.30240339 -8.59698486 63.88943481 C-8.5976588 62.43890873 -8.59862958 60.98838275 -8.59988403 59.53785706 C-8.60136099 56.488779 -8.59920933 53.43973018 -8.59454346 50.39065552 C-8.58889175 46.51086074 -8.59209593 42.63113584 -8.59811592 38.75134373 C-8.60176077 35.74932853 -8.60056431 32.74732937 -8.59798813 29.74531364 C-8.59732727 28.31699553 -8.59811739 26.8886759 -8.60046768 25.46035957 C-8.62232158 8.42109777 -8.62232158 8.42109777 -7.46417236 1.13552856 C-5.52265132 -0.80599248 -2.58428454 0.00865182 0 0 Z " fill="#4E478B" transform="translate(179.46417236328125,311.8644714355469)"/>
<path d="M0 0 C21.12 0 42.24 0 64 0 C64.80416449 38.20419567 65.16172046 76.36820947 65.12856841 114.57768655 C65.12414581 120.28860733 65.1273917 125.99950672 65.1321975 131.71042621 C65.13671853 137.31150705 65.13738851 142.91257849 65.13475883 148.51366055 C65.13320886 151.81773617 65.13336994 155.12179379 65.13629532 158.42586899 C65.13881184 162.04549128 65.13500262 165.66505044 65.12939453 169.28466797 C65.13141876 170.36350754 65.13344299 171.44234711 65.13552856 172.55387878 C65.13270874 173.52753891 65.12988892 174.50119904 65.12698364 175.50436401 C65.1264181 176.77851827 65.1264181 176.77851827 65.12584114 178.07841301 C65 180 65 180 64 181 C62.07767713 181.09920667 60.15168721 181.12799363 58.22680664 181.12939453 C56.99205093 181.13254669 55.75729523 181.13569885 54.48512268 181.13894653 C53.12680018 181.13715655 51.768478 181.13510555 50.41015625 181.1328125 C49.02632124 181.13348566 47.64248634 181.13445579 46.25865173 181.13571167 C43.35414508 181.13718856 40.44966911 181.1350347 37.54516602 181.13037109 C33.81803214 181.12467911 30.09097036 181.12794948 26.36383915 181.13394356 C23.50458735 181.13755394 20.64535269 181.13640829 17.78610039 181.13381577 C16.41174753 181.13314754 15.03739313 181.13397128 13.66304207 181.13629532 C11.74289097 181.13882901 9.82273444 181.13428392 7.90258789 181.12939453 C6.26163902 181.12820114 6.26163902 181.12820114 4.58753967 181.12698364 C2 181 2 181 0 180 C0 120.6 0 61.2 0 0 Z " fill="#937AFA" transform="translate(116,0)"/>
<path d="M0 0 C1.14418396 -0.00426498 2.28836792 -0.00852997 3.46722412 -0.01292419 C5.35927582 -0.01224442 5.35927582 -0.01224442 7.28955078 -0.0115509 C8.62648615 -0.01454184 9.96342065 -0.01794421 11.300354 -0.02172852 C14.93662213 -0.03057836 18.57286674 -0.03290701 22.20914459 -0.0335443 C25.24115944 -0.0344925 28.27316877 -0.03816967 31.3051815 -0.0417164 C38.45557305 -0.04986432 45.605952 -0.05230028 52.75634766 -0.05158997 C60.14200015 -0.05098873 67.5275797 -0.06154886 74.91321373 -0.07733363 C81.24699435 -0.09038991 87.58075107 -0.09577469 93.91454506 -0.09513456 C97.70068549 -0.09487905 101.48676111 -0.09775919 105.27288818 -0.10831261 C108.83184587 -0.11796179 112.39067632 -0.11809482 115.94963837 -0.11079597 C117.88393262 -0.10924425 119.81822677 -0.11761859 121.75250244 -0.12623596 C123.46877838 -0.11994423 123.46877838 -0.11994423 125.21972656 -0.11352539 C126.71743088 -0.11434254 126.71743088 -0.11434254 128.24539185 -0.1151762 C130.60986328 0.13371277 130.60986328 0.13371277 132.60986328 2.13371277 C132.79763338 4.63333523 132.861804 7.02115474 132.83691406 9.5209198 C132.83720612 10.28199036 132.83749817 11.04306091 132.83779907 11.82719421 C132.83640309 14.34875293 132.82082946 16.87001802 132.80517578 19.39152527 C132.8014466 21.13744444 132.79859918 22.88336571 132.79660034 24.62928772 C132.78895639 29.22920997 132.76930141 33.82900634 132.74719238 38.42887878 C132.72675032 43.12083737 132.71760214 47.81281626 132.70751953 52.50480652 C132.6860562 61.71449731 132.65191111 70.92409458 132.60986328 80.13371277 C117.54509096 80.27425428 102.4803697 80.37986473 87.41508007 80.4445858 C80.41899304 80.47544405 73.42331478 80.51746859 66.42749023 80.58634949 C59.67122359 80.65283964 52.91538111 80.68745816 46.15880775 80.70297623 C43.58607631 80.71402959 41.01336705 80.73561431 38.44081688 80.76809311 C34.82633418 80.8118957 31.21358399 80.81763649 27.59887695 80.81486511 C26.54438858 80.83643677 25.48990021 80.85800842 24.40345764 80.88023376 C15.74932478 80.80882442 8.83613029 78.03183066 2.43062115 72.12367821 C-3.8563311 65.45517475 -7.52554376 58.00467135 -7.50366211 48.81437683 C-7.50358658 47.7535791 -7.50351105 46.69278137 -7.50343323 45.59983826 C-7.49827194 44.4611731 -7.49311066 43.32250793 -7.48779297 42.14933777 C-7.48567055 40.39324188 -7.48567055 40.39324188 -7.48350525 38.60166931 C-7.47790761 34.86232448 -7.46535552 31.12303951 -7.45263672 27.38371277 C-7.44762141 24.84855738 -7.44305856 22.31340106 -7.43896484 19.77824402 C-7.42793896 13.56337984 -7.41120316 7.34855058 -7.39013672 1.13371277 C-4.79317813 -0.16476653 -2.90919184 0.00488283 0 0 Z " fill="#947BFA" transform="translate(7.39013671875,311.8662872314453)"/>
<path d="M0 0 C1.35762562 0.00560352 2.71525735 0.00987005 4.07289124 0.01286316 C7.62563169 0.0242526 11.17799727 0.05366766 14.73059082 0.0869751 C18.3639621 0.11780432 21.99739466 0.13139579 25.63085938 0.14648438 C32.74494392 0.17854404 39.85877546 0.22966769 46.97265625 0.29296875 C46.99606832 8.45703968 47.01371569 16.62109604 47.02446842 24.78519249 C47.02963525 28.57816142 47.03661663 32.371107 47.0480957 36.1640625 C47.0591495 39.84049323 47.06497942 43.51690184 47.06753349 47.19334793 C47.06934805 48.57959973 47.07288828 49.96585065 47.07838631 51.35209274 C47.11906158 62.05659138 46.56815185 72.57404803 45.97265625 83.29296875 C18.25265625 83.29296875 -9.46734375 83.29296875 -38.02734375 83.29296875 C-38.10984375 74.07359375 -38.19234375 64.85421875 -38.27734375 55.35546875 C-38.31375977 52.461604 -38.35017578 49.56773926 -38.38769531 46.58618164 C-38.39938693 44.27100362 -38.40957764 41.95581733 -38.41796875 39.640625 C-38.43843262 38.45593628 -38.45889648 37.27124756 -38.47998047 36.05065918 C-38.48489046 24.30718724 -34.52625348 15.91167405 -26.33203125 7.56640625 C-18.12494398 0.09538062 -10.78379945 -0.12862306 0 0 Z " fill="#514A8C" transform="translate(38.02734375,-0.29296875)"/>
<path d="M0 0 C1.14239136 0.00303635 1.14239136 0.00303635 2.30786133 0.00613403 C3.10619385 0.00438171 3.90452637 0.00262939 4.72705078 0.00082397 C7.37900942 -0.00359511 10.03090195 -0.00065636 12.68286133 0.00271606 C14.51749688 0.00204304 16.35213234 0.00107303 18.18676758 -0.00018311 C22.03703661 -0.00166015 25.88728248 0.0004947 29.73754883 0.00515747 C34.6844263 0.01085476 39.63124952 0.0075758 44.578125 0.00158501 C48.36808688 -0.00202042 52.15803579 -0.00088211 55.94799805 0.0017128 C57.77254238 0.00238212 59.59708788 0.00155347 61.42163086 -0.00076675 C63.96707294 -0.00329298 66.51242592 0.00054687 69.05786133 0.00613403 C69.81945557 0.0041098 70.5810498 0.00208557 71.36572266 0 C76.56859875 0.02126599 76.56859875 0.02126599 77.68286133 1.13552856 C77.77691275 3.12984586 77.80029382 5.12752399 77.79638672 7.12405396 C77.79627342 9.04593285 77.79627342 9.04593285 77.79615784 11.00663757 C77.79105042 12.41548704 77.78583441 13.82433612 77.78051758 15.23318481 C77.77865335 16.66665091 77.77722947 18.10011764 77.77622986 19.53358459 C77.77240505 23.31312813 77.76257509 27.09263346 77.75152588 30.87216187 C77.74131096 34.72622155 77.73673207 38.58028738 77.73168945 42.43435669 C77.72095278 50.00143143 77.70387682 57.56847465 77.68286133 65.13552856 C74.7501426 66.60188793 72.15606852 66.26286899 68.8815918 66.2649231 C67.83241325 66.26755157 67.83241325 66.26755157 66.76203918 66.27023315 C64.44135073 66.27464647 62.12073811 66.27171361 59.80004883 66.26834106 C58.18539414 66.26901471 56.57073955 66.26998524 54.95608521 66.27124023 C51.56487059 66.27271687 48.17368227 66.27056542 44.7824707 66.26589966 C40.45173968 66.2602297 36.12107101 66.26346414 31.79034233 66.26947212 C28.45131977 66.27310204 25.11231175 66.27192754 21.77328873 66.26934433 C20.17781695 66.26868035 18.58234383 66.26948487 16.98687363 66.27182388 C14.74471346 66.27438732 12.50265102 66.27045712 10.26049805 66.2649231 C8.98745819 66.2641275 7.71441833 66.26333191 6.40280151 66.26251221 C-4.56453535 65.88813189 -4.56453535 65.88813189 -6.31713867 64.13552856 C-6.4163964 62.17728159 -6.44513281 60.21542959 -6.4465332 58.25466919 C-6.44968536 56.99666504 -6.45283752 55.73866089 -6.45608521 54.4425354 C-6.45429542 53.05894944 -6.45224447 51.67536379 -6.44995117 50.29177856 C-6.45062426 48.88312768 -6.45159432 47.4744769 -6.45285034 46.06582642 C-6.45432709 43.11004534 -6.4521735 40.15429443 -6.44750977 37.19851685 C-6.44181248 33.40178272 -6.44509161 29.60511928 -6.45108223 25.80838776 C-6.45468847 22.89856428 -6.45354897 19.98875768 -6.45095444 17.07893372 C-6.45028534 15.67863456 -6.45111299 14.27833389 -6.45343399 12.8780365 C-6.4559615 10.92415393 -6.451429 8.97026601 -6.4465332 7.01638794 C-6.44573761 5.90243652 -6.44494202 4.78848511 -6.44412231 3.64077759 C-6.21296977 -0.91961046 -4.02824947 0.01646488 0 0 Z " fill="#947AFA" transform="translate(6.317138671875,114.86447143554688)"/>
<path d="M0 0 C25.74 0 51.48 0 78 0 C78.62859637 39.99444432 78.62859637 39.99444432 78.7734375 53.58984375 C78.78895723 55.04652623 78.78895723 55.04652623 78.8047905 56.53263664 C79.09923608 85.11154193 79.1161507 113.69187753 79.12283063 142.27203315 C79.12410982 147.38258086 79.12785129 152.49312265 79.13256836 157.60366821 C79.13879189 164.6172743 79.1386118 171.63086118 79.13431931 178.64446831 C79.13333539 181.23859076 79.13387993 183.83271437 79.13615799 186.42683601 C79.14832806 203.30795585 78.78111706 220.13640648 78 237 C77.67 237 77.34 237 77 237 C76.09542441 218.11698458 75.90074249 199.27835416 76.03710938 180.37670898 C76.10618196 167.76729093 75.88014477 155.18009337 75.57502556 142.57533073 C74.90864688 114.82131196 74.88067714 87.07813609 74.93133545 59.31738281 C74.94368151 51.7972848 74.94800931 44.27717782 74.95378876 36.75707245 C74.96328057 25.50469729 74.98251831 14.25237825 75 3 C50.25 3 25.5 3 0 3 C0 2.01 0 1.02 0 0 Z " fill="#AEA0ED" transform="translate(316,126)"/>
<path d="M0 0 C1.14239136 0.00303635 1.14239136 0.00303635 2.30786133 0.00613403 C3.10619385 0.00438171 3.90452637 0.00262939 4.72705078 0.00082397 C7.37900942 -0.00359511 10.03090195 -0.00065636 12.68286133 0.00271606 C14.51749688 0.00204304 16.35213234 0.00107303 18.18676758 -0.00018311 C22.03703661 -0.00166015 25.88728248 0.0004947 29.73754883 0.00515747 C34.6844263 0.01085476 39.63124952 0.0075758 44.578125 0.00158501 C48.36808688 -0.00202042 52.15803579 -0.00088211 55.94799805 0.0017128 C57.77254238 0.00238212 59.59708788 0.00155347 61.42163086 -0.00076675 C63.96707294 -0.00329298 66.51242592 0.00054687 69.05786133 0.00613403 C69.81945557 0.0041098 70.5810498 0.00208557 71.36572266 0 C76.56859875 0.02126599 76.56859875 0.02126599 77.68286133 1.13552856 C77.77691275 3.12984586 77.80029382 5.12752399 77.79638672 7.12405396 C77.79627342 9.04593285 77.79627342 9.04593285 77.79615784 11.00663757 C77.79105042 12.41548704 77.78583441 13.82433612 77.78051758 15.23318481 C77.77865335 16.66665091 77.77722947 18.10011764 77.77622986 19.53358459 C77.77240505 23.31312813 77.76257509 27.09263346 77.75152588 30.87216187 C77.74131096 34.72622155 77.73673207 38.58028738 77.73168945 42.43435669 C77.72095278 50.00143143 77.70387682 57.56847465 77.68286133 65.13552856 C75.37465625 66.2896311 74.07501856 66.25655826 71.50854492 66.24905396 C70.21743301 66.24894066 70.21743301 66.24894066 68.90023804 66.24882507 C67.50486313 66.24108315 67.50486313 66.24108315 66.08129883 66.23318481 C65.12969879 66.23176987 64.17809875 66.23035492 63.19766235 66.22889709 C60.15103036 66.22328868 57.1044712 66.21073476 54.05786133 66.19802856 C51.99536239 66.19301465 49.9328623 66.18845155 47.87036133 66.18435669 C42.80783316 66.17331652 37.7453596 66.15604623 32.68286133 66.13552856 C33.01286133 65.47552856 33.34286133 64.81552856 33.68286133 64.13552856 C47.21286133 63.80552856 60.74286133 63.47552856 74.68286133 63.13552856 C75.01286133 42.67552856 75.34286133 22.21552856 75.68286133 1.13552856 C50.27286133 1.13552856 24.86286133 1.13552856 -1.31713867 1.13552856 C-1.64713867 2.12552856 -1.97713867 3.11552856 -2.31713867 4.13552856 C-2.64713867 4.46552856 -2.97713867 4.79552856 -3.31713867 5.13552856 C-3.44043956 6.94520596 -3.4950405 8.75960694 -3.52246094 10.57327271 C-3.54240616 11.73440079 -3.56235138 12.89552887 -3.582901 14.09184265 C-3.59961349 15.35536057 -3.61632599 16.61887848 -3.63354492 17.92068481 C-3.65432602 19.20664047 -3.67510712 20.49259613 -3.69651794 21.81752014 C-3.75180043 25.2418876 -3.80118228 28.66631606 -3.84936523 32.09078979 C-3.89953532 35.5829717 -3.95524477 39.07506466 -4.01049805 42.56716919 C-4.11815507 49.4232119 -4.21958316 56.27933489 -4.31713867 63.13552856 C-3.30339172 63.1329454 -3.30339172 63.1329454 -2.26916504 63.13031006 C-1.37685181 63.12897064 -0.48453857 63.12763123 0.43481445 63.12625122 C1.31689575 63.12452911 2.19897705 63.12280701 3.10778809 63.12103271 C6.47587699 63.13999268 9.82188039 63.29489041 13.18286133 63.51052856 C14.36879883 63.58013794 15.55473633 63.64974731 16.77661133 63.72146606 C19.68286133 64.13552856 19.68286133 64.13552856 21.68286133 66.13552856 C18.68279893 66.16274687 15.68298877 66.18247235 12.68286133 66.19802856 C11.84368164 66.20640747 11.00450195 66.21478638 10.13989258 66.22341919 C4.89209742 66.24375948 -0.1325201 65.97802908 -5.31713867 65.13552856 C-7.10809912 63.34456812 -6.44480658 60.67220071 -6.4465332 58.25466919 C-6.44968536 56.99666504 -6.45283752 55.73866089 -6.45608521 54.4425354 C-6.45429542 53.05894944 -6.45224447 51.67536379 -6.44995117 50.29177856 C-6.45062426 48.88312768 -6.45159432 47.4744769 -6.45285034 46.06582642 C-6.45432709 43.11004534 -6.4521735 40.15429443 -6.44750977 37.19851685 C-6.44181248 33.40178272 -6.44509161 29.60511928 -6.45108223 25.80838776 C-6.45468847 22.89856428 -6.45354897 19.98875768 -6.45095444 17.07893372 C-6.45028534 15.67863456 -6.45111299 14.27833389 -6.45343399 12.8780365 C-6.4559615 10.92415393 -6.451429 8.97026601 -6.4465332 7.01638794 C-6.44573761 5.90243652 -6.44494202 4.78848511 -6.44412231 3.64077759 C-6.21296977 -0.91961046 -4.02824947 0.01646488 0 0 Z " fill="#8A76D3" transform="translate(6.317138671875,114.86447143554688)"/>
<path d="M0 0 C21.12 0 42.24 0 64 0 C64.33 21.12 64.66 42.24 65 64 C64.34 64 63.68 64 63 64 C62.67 44.2 62.34 24.4 62 4 C52.986875 3.814375 43.97375 3.62875 34.6875 3.4375 C31.84342529 3.37618896 28.99935059 3.31487793 26.0690918 3.25170898 C23.82080893 3.20775189 21.57251835 3.16418651 19.32421875 3.12109375 C18.15201782 3.09438599 16.97981689 3.06767822 15.77209473 3.04016113 C14.09766296 3.00952576 14.09766296 3.00952576 12.3894043 2.97827148 C11.41899704 2.95828598 10.44858978 2.93830048 9.44877625 2.91770935 C6.86065514 2.8885666 6.86065514 2.8885666 4 4 C3.67 23.8 3.34 43.6 3 64 C2.01 64 1.02 64 0 64 C0 42.88 0 21.76 0 0 Z " fill="#A695EE" transform="translate(116,0)"/>
<path d="M0 0 C1.14418396 -0.00426498 2.28836792 -0.00852997 3.46722412 -0.01292419 C5.35927582 -0.01224442 5.35927582 -0.01224442 7.28955078 -0.0115509 C8.62648615 -0.01454184 9.96342065 -0.01794421 11.300354 -0.02172852 C14.93662213 -0.03057836 18.57286674 -0.03290701 22.20914459 -0.0335443 C25.24115944 -0.0344925 28.27316877 -0.03816967 31.3051815 -0.0417164 C38.45557305 -0.04986432 45.605952 -0.05230028 52.75634766 -0.05158997 C60.14200015 -0.05098873 67.5275797 -0.06154886 74.91321373 -0.07733363 C81.24699435 -0.09038991 87.58075107 -0.09577469 93.91454506 -0.09513456 C97.70068549 -0.09487905 101.48676111 -0.09775919 105.27288818 -0.10831261 C108.83184587 -0.11796179 112.39067632 -0.11809482 115.94963837 -0.11079597 C117.88393262 -0.10924425 119.81822677 -0.11761859 121.75250244 -0.12623596 C123.46877838 -0.11994423 123.46877838 -0.11994423 125.21972656 -0.11352539 C126.71743088 -0.11434254 126.71743088 -0.11434254 128.24539185 -0.1151762 C130.60986328 0.13371277 130.60986328 0.13371277 132.60986328 2.13371277 C132.79763338 4.63333523 132.861804 7.02115474 132.83691406 9.5209198 C132.83720612 10.28199036 132.83749817 11.04306091 132.83779907 11.82719421 C132.83640309 14.34875293 132.82082946 16.87001802 132.80517578 19.39152527 C132.8014466 21.13744444 132.79859918 22.88336571 132.79660034 24.62928772 C132.78895639 29.22920997 132.76930141 33.82900634 132.74719238 38.42887878 C132.72675032 43.12083737 132.71760214 47.81281626 132.70751953 52.50480652 C132.6860562 61.71449731 132.65191111 70.92409458 132.60986328 80.13371277 C132.27986328 80.13371277 131.94986328 80.13371277 131.60986328 80.13371277 C130.41731144 73.48777101 130.40497228 66.88807595 130.32861328 60.14933777 C130.31020386 58.89796021 130.29179443 57.64658264 130.27282715 56.35728455 C130.21427187 52.36613941 130.16125834 48.37495458 130.10986328 44.38371277 C130.04206356 39.13884049 129.96803522 33.89408442 129.89111328 28.64933777 C129.87075012 26.86441925 129.87075012 26.86441925 129.84997559 25.04344177 C129.85539505 14.53366499 129.85539505 14.53366499 128.60986328 4.13371277 C126.29855812 2.97806019 124.88965923 2.97333533 122.31445312 2.91252136 C121.41225037 2.88939377 120.51004761 2.86626617 119.58050537 2.84243774 C118.0907016 2.81259544 118.0907016 2.81259544 116.57080078 2.78215027 C115.00316986 2.74680931 115.00316986 2.74680931 113.40386963 2.71075439 C109.93097026 2.63636418 106.45798983 2.57155915 102.98486328 2.50871277 C101.80156433 2.48592255 100.61826538 2.46313232 99.39910889 2.43965149 C71.78790899 1.92764621 44.21423887 2.43376977 16.60986328 3.13371277 C16.60986328 2.47371277 16.60986328 1.81371277 16.60986328 1.13371277 C13.17204297 1.27254696 9.734703 1.42098331 6.29736328 1.57121277 C5.32089844 1.61052917 4.34443359 1.64984558 3.33837891 1.69035339 C2.40058594 1.73224792 1.46279297 1.77414246 0.49658203 1.81730652 C-0.79953003 1.87229309 -0.79953003 1.87229309 -2.12182617 1.9283905 C-4.55491932 2.06118631 -4.55491932 2.06118631 -7.39013672 3.13371277 C-7.39013672 2.47371277 -7.39013672 1.81371277 -7.39013672 1.13371277 C-4.79317813 -0.16476653 -2.90919184 0.00488283 0 0 Z " fill="#8974DE" transform="translate(7.39013671875,311.8662872314453)"/>
<path d="M0 0 C0.66 0 1.32 0 2 0 C2.02332969 15.10724691 2.04097952 30.21449243 2.05181217 45.3217535 C2.05697498 52.33584634 2.06401739 59.349928 2.07543945 66.36401367 C2.08644688 73.12668068 2.09227619 79.88933364 2.09487724 86.65200996 C2.09673203 89.2385228 2.10035367 91.82503497 2.10573006 94.41154289 C2.11293651 98.02038855 2.11399111 101.62918547 2.11352539 105.23803711 C2.11712067 106.3191275 2.12071594 107.4002179 2.12442017 108.5140686 C2.1230455 109.49148514 2.12167084 110.46890167 2.12025452 111.47593689 C2.12117631 112.33043899 2.1220981 113.18494108 2.12304783 114.06533718 C2 116 2 116 1 117 C-0.90243762 117.09391296 -2.80838459 117.11743658 -4.71313477 117.11352539 C-5.9343251 117.11344986 -7.15551544 117.11337433 -8.41371155 117.11329651 C-9.75627686 117.10818911 -11.09884175 117.10297311 -12.44140625 117.09765625 C-13.80761158 117.09579199 -15.17381757 117.09436813 -16.5400238 117.09336853 C-20.14201695 117.08954394 -23.74397 117.07971417 -27.34594727 117.06866455 C-31.01903745 117.05844916 -34.69213409 117.05387064 -38.36523438 117.04882812 C-45.57684123 117.03809184 -52.788415 117.02101614 -60 117 C-60 116.34 -60 115.68 -60 115 C-40.2 115 -20.4 115 0 115 C0 77.05 0 39.1 0 0 Z " fill="#8873CE" transform="translate(179,64)"/>
<path d="M0 0 C2.82926015 1.41463008 3.35617614 3.45734389 4.37127686 6.33926392 C5.72381562 12.06316438 5.46330895 17.97271245 5.4765625 23.82421875 C5.49089721 25.25813747 5.5066586 26.69204256 5.52377319 28.12593079 C5.56541134 31.8803945 5.59054816 35.63477368 5.61126709 39.3894043 C5.64723393 45.40817511 5.70827673 51.4267372 5.76975632 57.44529152 C5.78874923 59.53967374 5.80054554 61.63400001 5.81118774 63.72843933 C5.82144989 65.00358902 5.83171204 66.27873871 5.84228516 67.5925293 C5.84878082 68.71201462 5.85527649 69.83149994 5.86196899 70.98490906 C5.98967175 73.77439416 6.40735195 76.27898239 7 79 C7.42561543 88.68901001 6.75719971 98.34570365 6 108 C5.34 108 4.68 108 4 108 C-0.1104162 99.7791676 1.46763161 85.89823652 3 77 C2.28384521 77.01474869 1.56769043 77.02949738 0.82983398 77.04469299 C-5.99335512 77.18402926 -12.81664429 77.31691815 -19.64009094 77.4429636 C-23.14620669 77.50794675 -26.65224365 77.57523005 -30.15820312 77.64819336 C-59.97236496 78.26554923 -59.97236496 78.26554923 -73 77 C-73 76.67 -73 76.34 -73 76 C-47.59 76 -22.18 76 4 76 C3.896875 65.873125 3.79375 55.74625 3.6875 45.3125 C3.66260498 42.14180908 3.63770996 38.97111816 3.61206055 35.7043457 C3.57973483 33.15314309 3.54635612 30.60195352 3.51171875 28.05078125 C3.50547485 26.75700562 3.49923096 25.46322998 3.49279785 24.13024902 C3.36165649 15.72845908 2.2340894 8.10182542 0 0 Z " fill="#9794B7" transform="translate(389,17)"/>
<path d="M0 0 C0.66 0 1.32 0 2 0 C2.97673933 21.25706897 3.11286803 42.51754512 3.12338257 63.79314041 C3.12497706 65.90709165 3.12852094 68.02103141 3.13256836 70.13497925 C3.16309049 88.11046997 2.85882647 106.042706 2 124 C1.67 124 1.34 124 1 124 C-0.20806076 98.99450243 -0.12078098 73.99842864 -0.06866455 48.97033691 C-0.05826347 43.43140045 -0.05383172 37.89245913 -0.04882812 32.35351562 C-0.0382411 21.56899804 -0.02127273 10.78450145 0 0 Z " fill="#9082C3" transform="translate(392,239)"/>
<path d="M0 0 C0.66 0.33 1.32 0.66 2 1 C4.68299473 1.09575683 7.33992052 1.13012506 10.02310181 1.12025452 C10.86193889 1.12110894 11.70077597 1.12196337 12.56503236 1.12284368 C15.3918463 1.12449827 18.21860164 1.11897744 21.04541016 1.11352539 C23.0653839 1.11324349 25.08535774 1.11340131 27.10533142 1.1139679 C32.60298045 1.11425575 38.10060783 1.10836093 43.59825182 1.10139394 C49.33847984 1.09515844 55.07870832 1.09455644 60.81893921 1.09336853 C71.69512097 1.0902558 82.57129272 1.08204318 93.44747007 1.07201904 C105.82696519 1.06085611 118.20646078 1.055347 130.58595967 1.05032361 C156.057312 1.03986053 181.52865544 1.0222622 207 1 C206.67 1.66 206.34 2.32 206 3 C104.03 3.495 104.03 3.495 0 4 C-1.4807848 6.9615696 -1.35314037 9.83506295 -1.5625 13.125 C-1.64628906 14.40632812 -1.73007812 15.68765625 -1.81640625 17.0078125 C-1.90728516 18.48894531 -1.90728516 18.48894531 -2 20 C-4.37590142 16.29583874 -4.20500286 13.07015427 -4.125 8.75 C-4.10695313 7.48671875 -4.08890625 6.2234375 -4.0703125 4.921875 C-4.04710937 3.95765625 -4.02390625 2.9934375 -4 2 C-2.125 0.9375 -2.125 0.9375 0 0 Z " fill="#463B82" transform="translate(4,212)"/>
<path d="M0 0 C0.33 0 0.66 0 1 0 C1.02505615 1.145896 1.0501123 2.29179199 1.07592773 3.47241211 C1.16983106 7.70853598 1.27009275 11.94448928 1.37231445 16.18041992 C1.4157282 18.01664247 1.45739839 19.85290708 1.49731445 21.68920898 C1.55486169 24.32288311 1.61859998 26.95634421 1.68359375 29.58984375 C1.70866249 30.82890724 1.70866249 30.82890724 1.73423767 32.09300232 C1.47807433 35.85476753 1.47807433 35.85476753 3 39 C5.61600453 39.12507482 8.20691934 39.18605405 10.82446289 39.20532227 C12.05363182 39.22017166 12.05363182 39.22017166 13.30763245 39.23532104 C16.02927717 39.26703055 18.75093939 39.29173062 21.47265625 39.31640625 C23.35453253 39.33696763 25.23640411 39.35796388 27.11827087 39.37937927 C32.08143311 39.43468426 37.0446376 39.48405623 42.00787354 39.53222656 C47.06843851 39.58238022 52.1289418 39.63809824 57.18945312 39.69335938 C67.12624945 39.80104395 77.06309923 39.90246589 87 40 C86.505 40.99 86.505 40.99 86 42 C85.30525574 41.99777939 84.61051147 41.99555878 83.89471436 41.99327087 C77.24925107 41.97297933 70.6037968 41.95788204 63.95830917 41.94818783 C60.54429521 41.94303597 57.13030747 41.93608416 53.71630859 41.92456055 C33.42533466 41.82425455 33.42533466 41.82425455 13.16107178 42.7353363 C8.62065577 43.03844318 4.47174788 42.87006696 0 42 C-1.73724588 40.26275412 -1.12823579 38.01924122 -1.13894653 35.70429993 C-1.1369223 34.96270126 -1.13489807 34.2211026 -1.1328125 33.45703125 C-1.13376923 32.69581467 -1.13472595 31.93459808 -1.13571167 31.15031433 C-1.13639382 29.53372109 -1.13453714 27.91712513 -1.13037109 26.30053711 C-1.12505994 23.84026815 -1.13029573 21.38018484 -1.13671875 18.91992188 C-1.13605725 17.34895793 -1.13477462 15.77799411 -1.1328125 14.20703125 C-1.13483673 13.47555374 -1.13686096 12.74407623 -1.13894653 11.99043274 C-1.12040181 7.88958997 -0.79543879 4.02340366 0 0 Z " fill="#483A7F" transform="translate(1,238)"/>
<path d="M0 0 C5.21508815 4.40385221 10.27194395 8.96025317 15.3125 13.5625 C17.50052988 15.54699222 19.70544503 17.50305236 21.9375 19.4375 C25.88312197 22.86460081 29.72430544 26.40265919 33.56689453 29.9440918 C36.44493826 32.59150841 39.35082863 35.19663672 42.3125 37.75 C45.4689109 40.48163511 48.40071021 43.37819454 51.32421875 46.35546875 C53.755136 48.74105421 56.34768712 50.86521159 59 53 C58.505 53.99 58.505 53.99 58 55 C57.01 55 56.02 55 55 55 C54.731875 54.360625 54.46375 53.72125 54.1875 53.0625 C53.11332248 50.66868314 53.11332248 50.66868314 50 50 C48.83010797 48.59612956 47.66428828 47.1884965 46.52734375 45.7578125 C42.90953313 41.59409184 38.57788244 38.05192163 34 35 C34 34.34 34 33.68 34 33 C33.01 32.67 32.02 32.34 31 32 C31 31.34 31 30.68 31 30 C30.443125 29.95875 29.88625 29.9175 29.3125 29.875 C25.82706704 28.55618753 24.27258651 25.8706356 22 23 C21.34 22.67 20.68 22.34 20 22 C20 21.34 20 20.68 20 20 C19.443125 19.7525 18.88625 19.505 18.3125 19.25 C15.57589087 17.77075182 13.32349131 16.06532561 11 14 C11 13.34 11 12.68 11 12 C10.34 12 9.68 12 9 12 C9 11.34 9 10.68 9 10 C8.2575 9.7525 7.515 9.505 6.75 9.25 C3.72742651 7.87610296 2.06022838 6.59436166 0 4 C0 2.68 0 1.36 0 0 Z " fill="#494376" transform="translate(311,335)"/>
<path d="M0 0 C-1 3 -1 3 -2 4 C-2.12330088 5.8096774 -2.17790183 7.62407837 -2.20532227 9.43774414 C-2.22526749 10.59887222 -2.24521271 11.76000031 -2.26576233 12.95631409 C-2.28247482 14.219832 -2.29918732 15.48334991 -2.31640625 16.78515625 C-2.33718735 18.07111191 -2.35796844 19.35706757 -2.37937927 20.68199158 C-2.43466176 24.10635904 -2.48404361 27.5307875 -2.53222656 30.95526123 C-2.58239665 34.44744314 -2.6381061 37.9395361 -2.69335938 41.43164062 C-2.8010164 48.28768333 -2.90244449 55.14380633 -3 62 C-1.98625305 61.99741684 -1.98625305 61.99741684 -0.95202637 61.99478149 C-0.05971313 61.99344208 0.8326001 61.99210266 1.75195312 61.99072266 C2.63403442 61.98900055 3.51611572 61.98727844 4.42492676 61.98550415 C7.79301566 62.00446412 11.13901907 62.15936184 14.5 62.375 C15.6859375 62.44460937 16.871875 62.51421875 18.09375 62.5859375 C21 63 21 63 23 65 C19.9999376 65.02721831 17.00012744 65.04694378 14 65.0625 C13.16082031 65.07087891 12.32164063 65.07925781 11.45703125 65.08789062 C6.20923609 65.10823092 1.18461857 64.84250052 -4 64 C-5 63 -5 63 -5.12025452 60.52598572 C-5.11803391 59.42678299 -5.11581329 58.32758026 -5.11352539 57.19506836 C-5.11344986 55.95385727 -5.11337433 54.71264618 -5.11329651 53.43382263 C-5.10818911 52.0691626 -5.1029731 50.70450298 -5.09765625 49.33984375 C-5.095792 47.95121817 -5.09436813 46.56259193 -5.09336853 45.17396545 C-5.08954387 41.51278885 -5.07971403 37.8516517 -5.06866455 34.19049072 C-5.05844932 30.45707737 -5.05387067 26.72365766 -5.04882812 22.99023438 C-5.03809171 15.66013823 -5.02101591 8.33007464 -5 1 C-3 0 -3 0 0 0 Z " fill="#886CE7" transform="translate(5,116)"/>
<path d="M0 0 C2.90419898 2.90419898 2.42186028 6.03732041 2.5625 9.9375 C2.74727904 15.54836555 2.74727904 15.54836555 4 21 C5.97956942 22.69088222 7.97945196 24.35830472 10 26 C10.33 26.66 10.66 27.32 11 28 C11.99 28.33 12.98 28.66 14 29 C14 29.66 14 30.32 14 31 C14.60199219 31.26167969 15.20398438 31.52335937 15.82421875 31.79296875 C18.13804608 33.07658212 19.2126805 34.23319569 20.8125 36.3125 C23.35525515 39.41888853 25.94481342 41.47234367 29.2734375 43.671875 C31.22738053 45.1749081 32.59588322 46.82096037 34.125 48.75 C36.61722878 51.8552904 38.06013284 52.34335547 42 53 C42.69658363 54.65438613 43.36096883 56.32254318 44 58 C46.44496043 59.71711243 46.44496043 59.71711243 49 61 C49.66 61.66 50.32 62.32 51 63 C50.67 63.99 50.34 64.98 50 66 C47.99394062 64.38201759 45.99523205 62.75623702 44 61.125 C43.42765625 60.66480469 42.8553125 60.20460938 42.265625 59.73046875 C40.80601181 58.53150078 39.3986243 57.26958455 38 56 C38 55.34 38 54.68 38 54 C37.41750488 53.73968994 36.83500977 53.47937988 36.23486328 53.21118164 C33.84928662 51.91832105 32.19669733 50.49757373 30.2421875 48.62109375 C29.18704956 47.6163501 29.18704956 47.6163501 28.1105957 46.59130859 C27.37284912 45.88055176 26.63510254 45.16979492 25.875 44.4375 C24.34586298 42.97961775 22.81591908 41.52258132 21.28515625 40.06640625 C20.54797363 39.36402832 19.81079102 38.66165039 19.05126953 37.93798828 C16.51025521 35.53730134 13.92366209 33.19913358 11.3125 30.875 C0.16562302 20.90748543 0.16562302 20.90748543 -0.11352539 16.00708008 C-0.10828857 15.26868896 -0.10305176 14.53029785 -0.09765625 13.76953125 C-0.09282227 12.56586914 -0.09282227 12.56586914 -0.08789062 11.33789062 C-0.07951172 10.50451172 -0.07113281 9.67113281 -0.0625 8.8125 C-0.05798828 7.96751953 -0.05347656 7.12253906 -0.04882812 6.25195312 C-0.03705403 4.16793845 -0.0191189 2.08396023 0 0 Z " fill="#8874D1" transform="translate(308,269)"/>
<path d="M0 0 C0.92688126 -0.00014603 1.85376251 -0.00029205 2.80873108 -0.0004425 C5.8821138 0.00025593 8.95543642 0.00804512 12.02880859 0.01586914 C14.15587328 0.01773357 16.28293839 0.01915735 18.41000366 0.02015686 C24.01600321 0.02398011 29.62197697 0.03380877 35.22796631 0.04486084 C40.94543102 0.05507909 46.66289989 0.05965537 52.38037109 0.06469727 C63.60434078 0.07543119 74.82829129 0.09250532 86.05224609 0.11352539 C86.05224609 0.44352539 86.05224609 0.77352539 86.05224609 1.11352539 C70.71240055 2.24523301 55.36450363 2.43742302 39.98974609 2.67602539 C37.36929797 2.71931848 34.74885518 2.76293579 32.12841797 2.80688477 C25.76975065 2.91283389 19.4110293 3.01478967 13.05224609 3.11352539 C13.05224609 2.45352539 13.05224609 1.79352539 13.05224609 1.11352539 C9.61442578 1.25235958 6.17708581 1.40079593 2.73974609 1.55102539 C1.76328125 1.5903418 0.78681641 1.6296582 -0.21923828 1.67016602 C-1.15703125 1.71206055 -2.09482422 1.75395508 -3.06103516 1.79711914 C-4.35714722 1.85210571 -4.35714722 1.85210571 -5.67944336 1.90820312 C-8.11253651 2.04099893 -8.11253651 2.04099893 -10.94775391 3.11352539 C-10.94775391 2.45352539 -10.94775391 1.79352539 -10.94775391 1.11352539 C-7.56439735 -0.57815289 -3.7208738 -0.01518229 0 0 Z " fill="#907EE1" transform="translate(10.94775390625,311.886474609375)"/>
<path d="M0 0 C2.64 0 5.28 0 8 0 C8 0.33 8 0.66 8 1 C24.83 1.33 41.66 1.66 59 2 C59 2.33 59 2.66 59 3 C39.86 3 20.72 3 1 3 C1 30.72 1 58.44 1 87 C0.01 87.495 0.01 87.495 -1 88 C-1.0231348 76.8215383 -1.04092092 65.64308225 -1.05181217 54.46460152 C-1.0570385 49.27440675 -1.06413164 44.08422833 -1.07543945 38.89404297 C-1.08627718 33.88849603 -1.09227873 28.88296484 -1.09487724 23.87740707 C-1.09672989 21.96437202 -1.10034744 20.05133786 -1.10573006 18.13830948 C-1.11295221 15.46604781 -1.11399044 12.79385184 -1.11352539 10.12158203 C-1.11712067 9.32460907 -1.12071594 8.52763611 -1.12442017 7.70651245 C-1.11405216 2.22810432 -1.11405216 2.22810432 0 0 Z " fill="#44397B" transform="translate(215,126)"/>
<path d="M0 0 C22.11 0 44.22 0 67 0 C66.34 0.99 65.68 1.98 65 3 C62.05599698 3.24591357 59.3308407 3.29976934 56.390625 3.21875 C55.0651767 3.19983704 55.0651767 3.19983704 53.71295166 3.18054199 C50.8081663 3.13515571 47.90433765 3.0679683 45 3 C43.0149936 2.96375163 41.02996684 2.92860231 39.04492188 2.89453125 C32.94608283 2.78414948 26.84813058 2.64367828 20.75 2.5 C18.6250047 2.45161609 16.5000047 2.40343799 14.375 2.35546875 C9.24994301 2.23934039 4.12495677 2.1204666 -1 2 C-0.67 1.34 -0.34 0.68 0 0 Z " fill="#493B7D" transform="translate(147,278)"/>
<path d="M0 0 C3.40667322 0.44824648 5.07914607 1.05276405 8 3 C-20.05 3 -48.1 3 -77 3 C-77 2.67 -77 2.34 -77 2 C-57.18171941 0.89679551 -37.39621076 0.92781094 -17.55322266 1.03710938 C-15.92866402 1.04345398 -15.92866402 1.04345398 -14.27128601 1.04992676 C-12.20486789 1.05817437 -10.13846139 1.07064357 -8.07209778 1.08776855 C-7.1542601 1.09103149 -6.23642242 1.09429443 -5.29077148 1.09765625 C-4.48316879 1.10289307 -3.6755661 1.10812988 -2.8434906 1.11352539 C-0.98241242 1.2031815 -0.98241242 1.2031815 0 0 Z " fill="#5E4D87" transform="translate(88,278)"/>
<path d="M0 0 C2.97088623 2.65838623 2.97088623 2.65838623 3.23291016 5.73291016 C3.16894043 6.82394043 3.1049707 7.9149707 3.0390625 9.0390625 C2.97904053 10.25247314 2.91901855 11.46588379 2.85717773 12.71606445 C2.78055908 14.00601318 2.70394043 15.29596191 2.625 16.625 C2.09815093 27.52196137 1.97841684 38.13978516 3 49 C3.66 49.33 4.32 49.66 5 50 C4.34 51.98 3.68 53.96 3 56 C0.32938199 53.32938199 0.06746676 51.33481625 -0.12025452 47.62078857 C-0.11803391 46.74142639 -0.11581329 45.86206421 -0.11352539 44.95605469 C-0.11344986 43.95531921 -0.11337433 42.95458374 -0.11329651 41.92352295 C-0.10813522 40.85047913 -0.10297394 39.7774353 -0.09765625 38.671875 C-0.0962413 37.56773254 -0.09482635 36.46359009 -0.09336853 35.32598877 C-0.08777258 31.80063158 -0.07522079 28.27533798 -0.0625 24.75 C-0.05748448 22.35937592 -0.05292166 19.96875084 -0.04882812 17.578125 C-0.03780447 11.71872832 -0.02107033 5.8593687 0 0 Z " fill="#8F71E9" transform="translate(0,316)"/>
<path d="M0 0 C0.33 0 0.66 0 1 0 C3.55766876 10.92083962 1.87013066 22.90583403 1 34 C0.34 34 -0.32 34 -1 34 C-4.98051468 26.03897065 -3.81641309 11.62796216 -2 3 C-1.34 3 -0.68 3 0 3 C0 2.01 0 1.02 0 0 Z " fill="#EAEAEB" transform="translate(394,91)"/>
<path d="M0 0 C0.99 0.33 1.98 0.66 3 1 C2.67 6.94 2.34 12.88 2 19 C-23.74 18.67 -49.48 18.34 -76 18 C-76 17.67 -76 17.34 -76 17 C-51.25 16.67 -26.5 16.34 -1 16 C-0.67 10.72 -0.34 5.44 0 0 Z " fill="#463B78" transform="translate(82,64)"/>
<path d="M0 0 C0.33 0 0.66 0 1 0 C2.10981005 9.35248815 2.15557082 18.66197435 2.125 28.0625 C2.12411377 28.84548462 2.12322754 29.62846924 2.12231445 30.43518066 C2.10351215 44.64031855 1.71743009 58.81167509 1 73 C0.67 73 0.34 73 0 73 C-0.93724855 48.57420599 -1.01536346 24.43083315 0 0 Z " fill="#A28ADA" transform="translate(393,290)"/>
<path d="M0 0 C1.5076518 0.00047413 3.01535638 0.01737373 4.52270508 0.04760742 C5.31751785 0.05185226 6.11233063 0.05609711 6.93122864 0.06047058 C9.46857654 0.07725687 12.00512871 0.11490793 14.54223633 0.15307617 C16.26292798 0.16812312 17.98363208 0.18181151 19.7043457 0.1940918 C23.92144895 0.2271601 28.13795775 0.27894123 32.35473633 0.34057617 C32.35473633 1.33057617 32.35473633 2.32057617 32.35473633 3.34057617 C19.48473633 3.34057617 6.61473633 3.34057617 -6.64526367 3.34057617 C-3.64526367 0.34057617 -3.64526367 0.34057617 0 0 Z " fill="#463D93" transform="translate(231.645263671875,311.659423828125)"/>
<path d="M0 0 C6.0956747 -0.9733416 10.99304896 -1.358848 16.25390625 2.203125 C19.350352 4.95823412 22.1575488 7.98700173 25 11 C26.50279058 12.33312068 28.02108332 13.6492357 29.5625 14.9375 C32.11519734 17.08396164 34.06593437 19.27819943 36 22 C31.92485275 22 30.98720336 20.44507745 28.0625 17.6875 C25.13259466 14.94319952 22.2233437 12.3884224 19 10 C17.33333333 8.33333333 15.66666667 6.66666667 14 5 C12.68824014 3.97186389 11.3630107 2.95915568 10 2 C9.01 2.66 8.02 3.32 7 4 C3.3125 3.125 3.3125 3.125 0 2 C0 1.34 0 0.68 0 0 Z " fill="#49417C" transform="translate(274,313)"/>
<path d="M0 0 C0.33 0 0.66 0 1 0 C1 8.58 1 17.16 1 26 C-3.03455089 24.38617965 -4.79681064 23.59503354 -7.8125 20.875 C-8.41707031 20.33617187 -9.02164062 19.79734375 -9.64453125 19.2421875 C-10.09183594 18.83226562 -10.53914063 18.42234375 -11 18 C-10.34 17.67 -9.68 17.34 -9 17 C-8.01 17.33 -7.02 17.66 -6 18 C-5.67 16.68 -5.34 15.36 -5 14 C-2.525 14.99 -2.525 14.99 0 16 C0 10.72 0 5.44 0 0 Z " fill="#947CF2" transform="translate(392,338)"/>
<path d="M0 0 C0.33 0 0.66 0 1 0 C1.02468646 4.66308199 1.04285349 9.32612608 1.05493164 13.98925781 C1.05996588 15.57617861 1.06679369 17.16309477 1.07543945 18.75 C1.08754482 21.02865749 1.09323733 23.30725376 1.09765625 25.5859375 C1.10281754 26.29744965 1.10797882 27.00896179 1.11329651 27.74203491 C1.11387171 32.77225659 1.11387171 32.77225659 0 35 C-0.66 35 -1.32 35 -2 35 C-2.29366149 23.17196766 -1.4286661 11.73547157 0 0 Z " fill="#3B3169" transform="translate(173,351)"/>
<path d="M0 0 C0 0.33 0 0.66 0 1 C-2.31 1.33 -4.62 1.66 -7 2 C-7 2.33 -7 2.66 -7 3 C-17.06604235 3.10849626 -26.97112823 2.9767249 -37 2 C-37 1.67 -37 1.34 -37 1 C-24.69229775 -0.34615493 -12.36247682 -0.09824685 0 0 Z " fill="#392DA4" transform="translate(312,92)"/>
<path d="M0 0 C0.33 0 0.66 0 1 0 C1.02683987 2.97922593 1.04676037 5.95821295 1.0625 8.9375 C1.07087891 9.78763672 1.07925781 10.63777344 1.08789062 11.51367188 C1.09111328 12.32255859 1.09433594 13.13144531 1.09765625 13.96484375 C1.10289307 14.7137085 1.10812988 15.46257324 1.11352539 16.23413086 C1 18 1 18 0 19 C-0.23527773 21.34987262 -0.41386417 23.70556039 -0.5625 26.0625 C-0.64628906 27.35285156 -0.73007813 28.64320313 -0.81640625 29.97265625 C-0.87699219 30.97167969 -0.93757812 31.97070312 -1 33 C-1.33 33 -1.66 33 -2 33 C-2.05826088 28.6250563 -2.09368457 24.25021302 -2.125 19.875 C-2.14175781 18.6375 -2.15851563 17.4 -2.17578125 16.125 C-2.18222656 14.92617188 -2.18867188 13.72734375 -2.1953125 12.4921875 C-2.20578613 11.39245605 -2.21625977 10.29272461 -2.22705078 9.15966797 C-1.98673701 5.81543058 -1.18909337 3.12291305 0 0 Z " fill="#272172" transform="translate(173,326)"/>
<path d="M0 0 C0.33 0.66 0.66 1.32 1 2 C1.55945313 1.98839844 2.11890625 1.97679687 2.6953125 1.96484375 C7.97743835 1.9053986 13.22627977 2.06510098 18.5 2.375 C19.6859375 2.44460937 20.871875 2.51421875 22.09375 2.5859375 C25 3 25 3 27 5 C23.9999376 5.02721831 21.00012744 5.04694378 18 5.0625 C16.74123047 5.07506836 16.74123047 5.07506836 15.45703125 5.08789062 C10.20680661 5.10824033 5.19544338 4.76368207 0 4 C0 2.68 0 1.36 0 0 Z " fill="#8F6ED1" transform="translate(1,176)"/>
<path d="M0 0 C0.76645844 0.01886765 1.53291687 0.03773529 2.32260132 0.05717468 C3.93812647 0.0989532 5.55357774 0.1436797 7.16894531 0.19116211 C9.64633785 0.261659 12.12374756 0.31584108 14.6015625 0.36914062 C16.1719023 0.41176645 17.74221637 0.45535312 19.3125 0.5 C20.42656723 0.52203239 20.42656723 0.52203239 21.56314087 0.54450989 C26.79443827 0.72021952 26.79443827 0.72021952 29.0234375 2.94921875 C15.4934375 2.94921875 1.9634375 2.94921875 -11.9765625 2.94921875 C-11.9765625 2.28921875 -11.9765625 1.62921875 -11.9765625 0.94921875 C-8.03749566 -0.37084902 -4.09349763 -0.11505236 0 0 Z " fill="#3F33A0" transform="translate(245.9765625,92.05078125)"/>
<path d="M0 0 C0 0.33 0 0.66 0 1 C-11.04803851 1.97587445 -21.8647462 1.97875111 -32.9375 1.5625 C-34.50713827 1.50908002 -36.07679992 1.45634233 -37.64648438 1.40429688 C-41.43130392 1.27735661 -45.21569133 1.14132273 -49 1 C-49 0.67 -49 0.34 -49 0 C-44.59357883 -0.17093875 -40.18691947 -0.33104079 -35.77978516 -0.48217773 C-34.28847308 -0.53472021 -32.79725264 -0.58994985 -31.30615234 -0.64819336 C-20.7948852 -1.05629455 -10.48577847 -0.85103771 0 0 Z " fill="#473A87" transform="translate(288,92)"/>
<path d="M0 0 C0.66 0 1.32 0 2 0 C2 7.26 2 14.52 2 22 C2.66 22 3.32 22 4 22 C4 22.66 4 23.32 4 24 C3.01 24.33 2.02 24.66 1 25 C0 24 0 24 -0.11352539 21.68334961 C-0.10828857 20.68311768 -0.10305176 19.68288574 -0.09765625 18.65234375 C-0.09443359 17.57275391 -0.09121094 16.49316406 -0.08789062 15.38085938 C-0.07951172 14.24455078 -0.07113281 13.10824219 -0.0625 11.9375 C-0.05798828 10.79732422 -0.05347656 9.65714844 -0.04882812 8.48242188 C-0.03699747 5.65489649 -0.0205141 2.8274736 0 0 Z " fill="#473F75" transform="translate(213,70)"/>
<path d="M0 0 C-0.33 0.66 -0.66 1.32 -1 2 C-3.74951693 2.22212255 -6.49865612 2.42815588 -9.25 2.625 C-10.02730469 2.68945312 -10.80460938 2.75390625 -11.60546875 2.8203125 C-18.72431144 3.30707097 -18.72431144 3.30707097 -22 1 C-14.38600077 -1.19386419 -7.83703499 -0.89635331 0 0 Z " fill="#463D79" transform="translate(226,313)"/>
<path d="M0 0 C5.28 0 10.56 0 16 0 C14 2 14 2 11.1796875 2.1953125 C10.08914062 2.17210937 8.99859375 2.14890625 7.875 2.125 C6.77929688 2.10695313 5.68359375 2.08890625 4.5546875 2.0703125 C3.29011719 2.03550781 3.29011719 2.03550781 2 2 C2 4.64 2 7.28 2 10 C-0.32221873 6.22639456 0 4.98800589 0 0 Z " fill="#483D83" transform="translate(172,313)"/>
<path d="M0 0 C6.45927694 2.03005847 9.98157014 6.79092426 14 12 C9.90139564 12 8.89204368 10.38373445 5.9375 7.625 C5.05964844 6.81289063 4.18179687 6.00078125 3.27734375 5.1640625 C1.83489789 3.79336781 0.40702772 2.40702772 -1 1 C-0.67 0.67 -0.34 0.34 0 0 Z " fill="#433A76" transform="translate(296,323)"/>
<path d="M0 0 C6.75 0.75 6.75 0.75 9 3 C9.39764263 4.98821313 9.73775349 6.98944339 10 9 C8.70391053 8.06862408 7.41328368 7.1296434 6.125 6.1875 C5.40570313 5.66542969 4.68640625 5.14335937 3.9453125 4.60546875 C2 3 2 3 0 0 Z M7 0 C7.99 0 8.98 0 10 0 C9.67 0.66 9.34 1.32 9 2 C8.34 1.34 7.68 0.68 7 0 Z " fill="#8D75DD" transform="translate(371,346)"/>
<path d="M0 0 C0.66 0.99 1.32 1.98 2 3 C4.41523403 5.64525632 7.18536049 7.79393119 10 10 C9.67 10.99 9.34 11.98 9 13 C6.99394062 11.38201759 4.99523205 9.75623702 3 8.125 C2.42765625 7.66480469 1.8553125 7.20460938 1.265625 6.73046875 C-0.19398819 5.53150078 -1.6013757 4.26958455 -3 3 C-3 2.34 -3 1.68 -3 1 C-2.01 0.67 -1.02 0.34 0 0 Z " fill="#906ED5" transform="translate(349,322)"/>
<path d="M0 0 C0.99 0 1.98 0 3 0 C3 4.29 3 8.58 3 13 C2.01 13.495 2.01 13.495 1 14 C-0.04976964 10.85069107 -0.10131595 8.61185544 -0.0625 5.3125 C-0.05347656 4.31863281 -0.04445313 3.32476562 -0.03515625 2.30078125 C-0.02355469 1.54152344 -0.01195312 0.78226562 0 0 Z " fill="#E7E7E6" transform="translate(392,0)"/>
<path d="M0 0 C0.74507812 0.05220703 1.49015625 0.10441406 2.2578125 0.15820312 C4.08894861 0.2873217 5.91953813 0.42415114 7.75 0.5625 C3.9084024 3.13030471 -0.0639175 2.78938882 -4.5 2.6875 C-5.24507812 2.67847656 -5.99015625 2.66945313 -6.7578125 2.66015625 C-8.58868059 2.63668358 -10.41938238 2.60081525 -12.25 2.5625 C-12.25 1.9025 -12.25 1.2425 -12.25 0.5625 C-8.10340627 -0.63549449 -4.25630953 -0.3271192 0 0 Z " fill="#483A83" transform="translate(230.25,91.4375)"/>
<path d="M0 0 C0 0.66 0 1.32 0 2 C-7.75 2.125 -7.75 2.125 -10 1 C-12.37123246 0.76970044 -14.74741943 0.58880058 -17.125 0.4375 C-18.40632813 0.35371094 -19.68765625 0.26992187 -21.0078125 0.18359375 C-22.48894531 0.09271484 -22.48894531 0.09271484 -24 0 C-24 -0.33 -24 -0.66 -24 -1 C-15.60246281 -1.81873222 -8.18439225 -2.44095909 0 0 Z " fill="#9274E8" transform="translate(36,179)"/>
<path d="M0 0 C5.20935262 2.42108679 9.83390272 5.66780543 12.4375 10.875 C12.623125 11.57625 12.80875 12.2775 13 13 C12.01 13 11.02 13 10 13 C9.5875 12.071875 9.175 11.14375 8.75 10.1875 C6.43895513 5.97809685 4.50298268 4.50099423 0 3 C0 2.01 0 1.02 0 0 Z " fill="#9F9BBF" transform="translate(376,4)"/>
<path d="M0 0 C0.33 1.32 0.66 2.64 1 4 C-0.79133978 4.05391993 -2.58313899 4.09275571 -4.375 4.125 C-5.37273437 4.14820312 -6.37046875 4.17140625 -7.3984375 4.1953125 C-10 4 -10 4 -12 2 C-8.04 1.34 -4.08 0.68 0 0 Z " fill="#584F83" transform="translate(315,91)"/>
<path d="M0 0 C3.40667322 0.44824648 5.07914607 1.05276405 8 3 C2.06 3 -3.88 3 -10 3 C-10 2.67 -10 2.34 -10 2 C-9.04287109 1.90912109 -9.04287109 1.90912109 -8.06640625 1.81640625 C-6.82697266 1.69072266 -6.82697266 1.69072266 -5.5625 1.5625 C-4.73878906 1.48128906 -3.91507812 1.40007812 -3.06640625 1.31640625 C-1.01337975 1.21069185 -1.01337975 1.21069185 0 0 Z " fill="#5B4F85" transform="translate(88,278)"/>
<path d="M0 0 C4.60853797 0.72008406 8.67237409 2.31295939 13 4 C12.67 4.66 12.34 5.32 12 6 C7.24518354 5.42365861 4.02951788 3.44931479 0 1 C0 0.67 0 0.34 0 0 Z " fill="#9073D7" transform="translate(14,386)"/>
<path d="M0 0 C4.8980305 2.35831098 8.95486375 4.35216046 12 9 C7.09198451 7.51272258 3.59508707 4.55364515 0 1 C0 0.67 0 0.34 0 0 Z " fill="#8473C9" transform="translate(381,355)"/>
<path d="M0 0 C0.99 0.99 1.98 1.98 3 3 C2.67 3.99 2.34 4.98 2 6 C1.77674186 8.05893621 1.59294241 10.12233653 1.4375 12.1875 C1.35371094 13.27417969 1.26992188 14.36085938 1.18359375 15.48046875 C1.12300781 16.31191406 1.06242187 17.14335937 1 18 C0.67 18 0.34 18 0 18 C0 12.06 0 6.12 0 0 Z " fill="#9F8CE7" transform="translate(392,269)"/>
<path d="M0 0 C0.70640625 0.05220703 1.4128125 0.10441406 2.140625 0.15820312 C3.88579987 0.28791207 5.63045725 0.42454954 7.375 0.5625 C7.375 0.8925 7.375 1.2225 7.375 1.5625 C6.39917969 1.62308594 5.42335938 1.68367187 4.41796875 1.74609375 C2.50951172 1.87177734 2.50951172 1.87177734 0.5625 2 C-0.70207031 2.08121094 -1.96664062 2.16242188 -3.26953125 2.24609375 C-6.61681893 2.43434547 -6.61681893 2.43434547 -9.625 3.5625 C-9.625 2.5725 -9.625 1.5825 -9.625 0.5625 C-6.5270403 -0.98647985 -3.36283448 -0.26989539 0 0 Z " fill="#916FEF" transform="translate(46.625,177.4375)"/>
<path d="M0 0 C0.66 0.33 1.32 0.66 2 1 C1.54625 1.4125 1.0925 1.825 0.625 2.25 C-1.0922331 3.91435498 -1.0922331 3.91435498 -1.9375 6.0625 C-3.24994775 8.45578707 -4.51014367 9.00405747 -7 10 C-5.6062718 5.56541027 -3.39417765 3.12621626 0 0 Z " fill="#A6A3C3" transform="translate(12,7)"/>
<path d="M0 0 C0.99 0.33 1.98 0.66 3 1 C3.125 6.75 3.125 6.75 2 9 C1.34 8.67 0.68 8.34 0 8 C0 5.36 0 2.72 0 0 Z " fill="#453974" transform="translate(274,259)"/>
<path d="M0 0 C1.32 0.33 2.64 0.66 4 1 C3.34 2.98 2.68 4.96 2 7 C0 5 0 5 -0.125 2.375 C-0.08375 1.59125 -0.0425 0.8075 0 0 Z " fill="#9179E2" transform="translate(1,365)"/>
<path d="M0 0 C2.64 0 5.28 0 8 0 C6.75 1.5 6.75 1.5 5 3 C3.68 3 2.36 3 1 3 C0.67 3.66 0.34 4.32 0 5 C0 3.35 0 1.7 0 0 Z " fill="#3B30A1" transform="translate(215,126)"/>
</svg>
