<?xml version="1.0" encoding="UTF-8"?>
<svg version="1.1" xmlns="http://www.w3.org/2000/svg" width="393" height="392">
<path d="M0 0 C1.07728867 -0.00315216 2.15457733 -0.00630432 3.26451111 -0.009552 C4.40126785 -0.00752777 5.5380246 -0.00550354 6.70922852 -0.00341797 C8.48657127 -0.00485306 8.48657127 -0.00485306 10.29981995 -0.00631714 C12.79004978 -0.00699486 15.28028142 -0.00516913 17.77050781 -0.00097656 C21.59973042 0.00441085 25.4288375 -0.0009524 29.25805664 -0.00732422 C31.67928086 -0.00666402 34.10050501 -0.00538406 36.52172852 -0.00341797 C37.67265488 -0.0054422 38.82358124 -0.00746643 40.00938416 -0.009552 C41.59221947 -0.00482376 41.59221947 -0.00482376 43.20703125 0 C44.1399852 0.00079559 45.07293915 0.00159119 46.03416443 0.00241089 C48.15063477 0.12939453 48.15063477 0.12939453 49.15063477 1.12939453 C49.30862895 2.78144455 49.39909295 4.44000777 49.46237183 6.09838867 C49.50366274 7.16101425 49.54495365 8.22363983 49.5874958 9.31846619 C49.6262174 10.4845491 49.664939 11.65063202 49.70483398 12.85205078 C49.74694441 14.0641774 49.78905483 15.27630402 49.83244133 16.52516174 C50.2706279 30.20531341 50.29568362 43.88104614 50.28344727 57.56689453 C50.28367169 60.27880896 50.28509437 62.9907226 50.28634644 65.70263672 C50.28814152 71.31934107 50.28582678 76.93603207 50.28100586 82.55273438 C50.27550415 89.03739369 50.2773787 95.52202185 50.28283226 102.00668049 C50.28736428 107.62251458 50.28801542 113.23833929 50.2853936 118.85417461 C50.28383945 122.18891422 50.28401117 125.5236273 50.28693008 128.85836792 C50.28945727 132.54769045 50.28561808 136.23695161 50.2800293 139.92626953 C50.28205353 141.02320633 50.28407776 142.12014313 50.28616333 143.25032043 C50.28193359 144.75038887 50.28193359 144.75038887 50.27761841 146.28076172 C50.27724138 147.14997253 50.27686436 148.01918335 50.27647591 148.91473389 C50.15063477 151.12939453 50.15063477 151.12939453 49.15063477 154.12939453 C45.82505215 154.87359828 42.75536765 155.25403443 39.3499403 155.25244236 C38.40643504 155.25443341 37.46292979 155.25642446 36.49083346 155.25847584 C34.94851856 155.25410658 34.94851856 155.25410658 33.37504578 155.24964905 C32.27638162 155.25050347 31.17771746 155.2513579 30.04576045 155.25223821 C26.35763891 155.25388772 22.66956267 155.24838025 18.98144531 155.24291992 C16.34034625 155.24263791 13.69924997 155.24275201 11.05815125 155.24336243 C5.36858843 155.24388665 -0.32096291 155.24075048 -6.01052284 155.23512459 C-14.23665959 155.2269958 -22.4627908 155.22439295 -30.68893113 155.2231366 C-44.03546244 155.22094825 -57.38198763 155.21429404 -70.72851562 155.20483398 C-83.69303354 155.19565426 -96.6575498 155.18857616 -109.62207031 155.18432617 C-110.42127151 155.18406345 -111.22047271 155.18380072 -112.04389212 155.18353004 C-116.05327004 155.182225 -120.06264796 155.18096129 -124.0720259 155.17971814 C-157.33114443 155.16935228 -190.59025159 155.15091761 -223.84936523 155.12939453 C-223.84936523 132.35939453 -223.84936523 109.58939453 -223.84936523 86.12939453 C-154.54936523 86.12939453 -85.24936523 86.12939453 -13.84936523 86.12939453 C-14.17936523 83.81939453 -14.50936523 81.50939453 -14.84936523 79.12939453 C-14.90700693 76.46555308 -14.92001409 73.83555293 -14.87109375 71.17456055 C-14.86148621 70.41275986 -14.85187866 69.65095917 -14.84197998 68.86607361 C-14.80924754 66.37171418 -14.768819 63.87754435 -14.72827148 61.38330078 C-14.70394512 59.64453277 -14.68010286 57.90575792 -14.65672302 56.16697693 C-14.59413232 51.60820686 -14.52499588 47.04955902 -14.45446777 42.49090576 C-14.3835573 37.83204679 -14.31887663 33.17310172 -14.25366211 28.51416016 C-14.12497258 19.38581029 -13.9893635 10.25757747 -13.84936523 1.12939453 C-9.1978622 0.49982023 -4.70061936 0.00398475 0 0 Z " fill="#AB5FEC" transform="translate(223.849365234375,127.87060546875)"/>
<path d="M0 0 C1.15102455 0.00842926 1.15102455 0.00842926 2.32530212 0.01702881 C3.13353424 0.01513046 3.94176636 0.01323212 4.77449036 0.01127625 C7.45355339 0.00756297 10.13234705 0.0182796 12.81138611 0.02947998 C14.66701221 0.03067148 16.52263892 0.03112501 18.37826538 0.03086853 C22.26966622 0.0324343 26.16097518 0.0407317 30.05235291 0.05413818 C35.05189517 0.07113997 40.05133648 0.07495225 45.05090427 0.074193 C48.88290377 0.07446431 52.71488099 0.07993893 56.54687309 0.08719444 C58.39095325 0.09038666 60.23503595 0.0923498 62.07911873 0.09308815 C64.65080738 0.09524522 67.22238677 0.10397527 69.79405212 0.11468506 C70.56342606 0.11423187 71.33279999 0.11377869 72.12548828 0.11331177 C77.38050515 0.14547403 77.38050515 0.14547403 78.49497986 1.25994873 C78.59300484 4.30659564 78.6248897 7.33058634 78.61523438 10.37763977 C78.6160888 11.3462961 78.61694322 12.31495244 78.61782354 13.312962 C78.61948129 16.58510417 78.61395217 19.85719598 78.60850525 23.1293335 C78.60822341 25.46442666 78.60838104 27.79951992 78.60894775 30.13461304 C78.60923588 36.49592889 78.6033368 42.85722607 78.5963738 49.21853757 C78.59077329 55.18634034 78.58975198 61.15414235 78.58872192 67.1219474 C78.5865311 78.94553928 78.57987018 90.76912427 78.57041931 102.5927124 C78.56124599 114.0809933 78.55416477 125.56927233 78.5499115 137.05755615 C78.54964878 137.76521138 78.54938605 138.47286661 78.54911537 139.20196594 C78.54781037 142.75192018 78.54654665 146.30187443 78.54530346 149.85182869 C78.53492989 179.32120648 78.51723662 208.79057753 78.49497986 238.25994873 C77.83497986 238.58994873 77.17497986 238.91994873 76.49497986 239.25994873 C76.07990173 238.89385498 75.66482361 238.52776123 75.23716736 238.15057373 C71.97043551 235.28022357 68.69497174 232.4227774 65.37388611 229.61541748 C58.3494849 223.66661501 51.50583148 217.57339346 44.82090759 211.24407959 C41.78101013 208.3698948 38.70910472 205.55347899 35.54966736 202.81072998 C30.73726196 198.629336 26.12252921 194.24893591 21.49497986 189.86541748 C17.54399194 186.13821599 13.52849917 182.50891679 9.42759705 178.94744873 C6.4496048 176.3471604 3.53015306 173.68565301 0.61997986 171.00994873 C0.05279236 170.49432373 -0.51439514 169.97869873 -1.09877014 169.44744873 C-7.38090786 163.67145481 -7.38090786 163.67145481 -7.75670242 159.39761257 C-7.75745647 158.22308057 -7.75821053 157.04854856 -7.75898743 155.83842468 C-7.76210741 155.18390416 -7.76522739 154.52938364 -7.76844192 153.85502917 C-7.77643105 151.65779862 -7.77009488 149.46084354 -7.7638092 147.26361084 C-7.76651864 145.69007709 -7.7700793 144.1165446 -7.77442932 142.54301453 C-7.78356052 138.26630324 -7.78000627 133.98968827 -7.77367115 129.71297526 C-7.76861583 125.24291771 -7.77330121 120.77286854 -7.77644348 116.30281067 C-7.78008412 108.7965649 -7.77528108 101.29035846 -7.76576233 93.78411865 C-7.75487363 85.09707043 -7.75840597 76.41011604 -7.76941514 67.72307009 C-7.77848053 60.27250105 -7.77977709 52.82196031 -7.7745378 45.37138754 C-7.77141448 40.91792961 -7.77101874 36.46451584 -7.77761078 32.01106071 C-7.78337289 27.8258339 -7.77940829 23.64072855 -7.76782227 19.45551491 C-7.76516975 17.91636227 -7.7659508 16.37719948 -7.7703476 14.83805084 C-7.77578124 12.7433906 -7.76899603 10.64912403 -7.75898743 8.55448914 C-7.75823338 7.38033416 -7.75747932 6.20617918 -7.75670242 4.99644375 C-7.27918736 -0.19548949 -4.57863913 0.02744837 0 0 Z " fill="#531085" transform="translate(312.50502014160156,127.74005126953125)"/>
<path d="M0 0 C0.74800369 0.01252808 1.49600739 0.02505615 2.26667786 0.03796387 C11.29760497 0.18781459 20.32864991 0.32857689 29.35981369 0.46335983 C30.98981331 0.48771006 32.61981059 0.51221722 34.24980545 0.53688431 C54.2323747 0.83838548 74.21026367 1.04340958 94.1953125 0.99609375 C95.48000333 0.99346716 95.48000333 0.99346716 96.79064751 0.99078751 C105.11681951 0.97332539 113.44278347 0.94643298 121.76878738 0.88981533 C124.84988688 0.87064272 127.93098448 0.85935842 131.01212692 0.84968758 C132.43328416 0.8432451 133.85443069 0.83314931 135.27553177 0.81896782 C149.06871426 0.68226183 161.50207568 1.75180599 171.92698669 11.64425659 C180.47944988 21.36315647 182.0090455 31.75402705 181.68359375 44.2421875 C181.67049536 45.74673121 181.66055132 47.25130532 181.65357971 48.75588989 C181.62718538 52.66597786 181.55872635 56.57416879 181.48065186 60.48352051 C181.40831096 64.49265902 181.37691907 68.50211206 181.34179688 72.51171875 C181.26731394 80.34199936 181.14826669 88.1707313 181 96 C172.0814078 97.1093569 163.24390169 97.14165007 154.27514648 97.12939453 C152.60043805 97.13075161 150.92572992 97.13253326 149.25102234 97.13470459 C144.73102285 97.13923931 140.21104634 97.13750658 135.69104648 97.1343255 C130.9563076 97.13178515 126.22157062 97.13414375 121.48683167 97.13571167 C113.54745125 97.13752687 105.60808017 97.13514242 97.66870117 97.13037109 C88.47993459 97.12491284 79.29119014 97.12670504 70.10242409 97.1321975 C62.20927663 97.13672704 54.31613585 97.13738047 46.42298752 97.13475883 C41.70978276 97.13319734 36.99658842 97.13299914 32.28338432 97.13629532 C27.86171867 97.13917228 23.44008179 97.13720163 19.01841927 97.13140106 C17.391761 97.13007324 15.76510032 97.13046795 14.13844299 97.13266373 C11.92786894 97.13537395 9.71738866 97.13199593 7.50682068 97.12698364 C5.64722796 97.1264181 5.64722796 97.1264181 3.75006771 97.12584114 C1 97 1 97 0 96 C-0.25144935 93.17542502 -0.42766644 90.37831866 -0.5546875 87.546875 C-0.61775589 86.16952179 -0.61775589 86.16952179 -0.68209839 84.76434326 C-1.20802568 71.75381261 -1.1505661 58.73072174 -1.13037109 45.71191406 C-1.12461146 41.96362538 -1.12800935 38.21540737 -1.13394356 34.46712112 C-1.13757144 31.53814162 -1.13640145 28.60917869 -1.13381577 25.68019867 C-1.13315592 24.297676 -1.13394133 22.91515175 -1.13629532 21.53263092 C-1.14597436 14.27167785 -0.98617519 7.19800165 0 0 Z " fill="#AA5CEC" transform="translate(210,0)"/>
<path d="M0 0 C0.909776 -0.00571014 1.819552 -0.01142029 2.75689697 -0.01730347 C3.75793961 -0.01842133 4.75898224 -0.01953918 5.7903595 -0.02069092 C6.84254669 -0.02565582 7.89473389 -0.03062073 8.97880554 -0.03573608 C12.47304429 -0.05038618 15.96723761 -0.0571653 19.46150208 -0.06268311 C21.88568117 -0.06843327 24.30986025 -0.07419102 26.73403931 -0.07995605 C31.82426669 -0.09047487 36.91447824 -0.09631142 42.00471497 -0.09979248 C48.52381243 -0.10527174 55.04270045 -0.12928411 61.56173229 -0.15776443 C66.57263801 -0.17640139 71.58349347 -0.18159704 76.59443092 -0.18312836 C78.99736485 -0.18615422 81.40029791 -0.19418048 83.80319786 -0.20731354 C87.16887115 -0.22439177 90.5340353 -0.22248888 93.8997345 -0.21600342 C94.89065598 -0.2252182 95.88157745 -0.23443298 96.90252686 -0.243927 C103.54166015 -0.20390607 108.56403914 0.54866816 113.82087708 4.93731689 C114.40997864 5.58184814 114.9990802 6.22637939 115.60603333 6.89044189 C118.78075426 10.23578123 122.05965244 13.29903289 125.55134583 16.30841064 C134.828111 24.33572221 143.79226207 32.73032856 152.81697083 41.03887939 C157.72773554 45.55604493 162.65802534 50.04199246 167.69587708 54.41778564 C174.15251349 60.05615526 180.4727101 65.85073681 186.79353333 71.64044189 C187.37449768 72.16919922 187.95546204 72.69795654 188.55403137 73.24273682 C189.94480108 74.52132405 191.30944979 75.82822331 192.66853333 77.14044189 C192.66853333 77.47044189 192.66853333 77.80044189 192.66853333 78.14044189 C126.99853333 78.14044189 61.32853333 78.14044189 -6.33146667 78.14044189 C-7.23431626 74.52904356 -7.45809626 71.85112284 -7.46086121 68.16949463 C-7.46401337 66.96401474 -7.46716553 65.75853485 -7.47041321 64.51652527 C-7.46838898 63.21550369 -7.46636475 61.91448212 -7.46427917 60.57403564 C-7.46495362 59.21604902 -7.46592482 57.85806251 -7.46717834 56.50007629 C-7.4686522 53.65126396 -7.46651313 50.802483 -7.46183777 47.95367432 C-7.45617869 44.33176602 -7.45939701 40.70993247 -7.46541023 37.088027 C-7.46905693 34.27988645 -7.46785793 31.47176303 -7.46528244 28.6636219 C-7.46430468 26.68807552 -7.46730566 24.71252843 -7.47041321 22.73698425 C-7.42868121 6.48530391 -7.42868121 6.48530391 -6.33146667 1.14044189 C-3.99047469 -0.0300541 -2.60886143 0.00978786 0 0 Z " fill="#AB5FEC" transform="translate(175.3314666748047,313.85955810546875)"/>
<path d="M0 0 C1.09396591 0.00142502 2.18793182 0.00285004 3.31504822 0.00431824 C5.17191002 -0.00029671 5.17191002 -0.00029671 7.06628418 -0.00500488 C8.42256353 0.00189233 9.77884104 0.00915926 11.13511658 0.01676941 C12.51991737 0.01796113 13.90471898 0.01841439 15.28952026 0.01815796 C18.19228675 0.01972298 21.09492993 0.02801477 23.99766541 0.04142761 C27.7259989 0.05843337 31.454197 0.06224152 35.18256474 0.06148243 C38.04178164 0.06175379 40.9009687 0.06722929 43.7601757 0.07448387 C45.1353527 0.07767473 46.51053308 0.07963892 47.88571358 0.08037758 C49.803577 0.08253581 51.72142793 0.09206522 53.63926697 0.10197449 C55.27902245 0.10769218 55.27902245 0.10769218 56.9519043 0.11352539 C59.41246033 0.24723816 59.41246033 0.24723816 60.41246033 1.24723816 C60.51178042 3.54850404 60.53878495 5.85288772 60.53944397 8.15629578 C60.54178396 9.25295287 60.54178396 9.25295287 60.54417121 10.37176466 C60.54818384 12.8400415 60.54499057 15.30825765 60.54185486 17.77653503 C60.54320878 19.53858476 60.54498867 21.3006342 60.54716492 23.06268311 C60.5517403 27.86213176 60.54994926 32.66155902 60.54678583 37.46100807 C60.54426277 42.47206812 60.54659962 47.48312628 60.548172 52.4941864 C60.54999385 60.91105988 60.54758697 69.3279246 60.54283142 77.74479675 C60.53738877 87.49061965 60.53915142 97.23642163 60.54465783 106.98224401 C60.54918851 115.33380485 60.54983973 123.68535936 60.54721916 132.03692102 C60.54565613 137.0319519 60.5454633 142.02697292 60.54875565 147.02200317 C60.55163371 151.71686729 60.54965987 156.4117043 60.54386139 161.10656548 C60.54253344 162.83480725 60.54292849 164.5630513 60.54512405 166.29129219 C60.54783421 168.64028629 60.54445611 170.98919215 60.53944397 173.33818054 C60.53887843 175.31486095 60.53887843 175.31486095 60.53830147 177.3314743 C60.41246033 180.24723816 60.41246033 180.24723816 59.41246033 181.24723816 C57.45421335 181.34649589 55.49236136 181.3752323 53.53160095 181.37663269 C51.64459473 181.38136093 51.64459473 181.38136093 49.71946716 181.38618469 C48.3358812 181.38439491 46.95229555 181.38234396 45.56871033 181.38005066 C44.16005944 181.38072375 42.75140867 181.38169381 41.34275818 181.38294983 C38.3869771 181.38442658 35.43122619 181.38227299 32.47544861 181.37760925 C28.67871449 181.37191196 24.88205105 181.37519109 21.08531952 181.38118172 C18.17549605 181.38478795 15.26568945 181.38364846 12.35586548 181.38105392 C10.95556632 181.38038483 9.55526565 181.38121248 8.15496826 181.38353348 C6.20108569 181.38606098 4.24719778 181.38152849 2.2933197 181.37663269 C1.17936829 181.3758371 0.06541687 181.3750415 -1.08229065 181.3742218 C-3.58753967 181.24723816 -3.58753967 181.24723816 -4.58753967 180.24723816 C-4.68904521 177.96093473 -4.71832278 175.67142726 -4.72125244 173.38287354 C-4.723518 172.65655792 -4.72578355 171.93024231 -4.72811776 171.18191713 C-4.73448601 168.72979803 -4.7336266 166.27773379 -4.73280334 163.8256073 C-4.73579308 162.07503182 -4.73919517 160.324457 -4.74298096 158.57388306 C-4.75184401 153.80536151 -4.75416003 149.03685789 -4.75479674 144.26832891 C-4.7557439 140.29442543 -4.75941995 136.32052617 -4.76296884 132.34662431 C-4.77112213 122.97503315 -4.77355227 113.6034516 -4.77284241 104.2318573 C-4.77224135 94.54852229 -4.7827968 84.86524294 -4.79858607 75.18192202 C-4.8116396 66.88214894 -4.81702723 58.5823941 -4.816387 50.28261083 C-4.81613137 45.31938978 -4.81901811 40.35621816 -4.82956505 35.39300728 C-4.83920937 30.72684597 -4.83935057 26.06078171 -4.83204842 21.39461708 C-4.83099799 19.67808135 -4.83339236 17.9615397 -4.83940887 16.24501419 C-4.84706756 13.90942218 -4.84252513 11.57417052 -4.83477783 9.23858643 C-4.8353226 7.92909562 -4.83586737 6.61960482 -4.83642864 5.27043247 C-4.51986809 1.42524772 -3.90442762 0.37306616 0 0 Z " fill="#530F85" transform="translate(117.58753967285156,0.7527618408203125)"/>
<path d="M0 0 C16.69861398 -0.02337964 33.39722264 -0.04100406 50.09584904 -0.05181217 C57.84963084 -0.05696436 65.60340247 -0.06398654 73.35717773 -0.07543945 C80.11682833 -0.08541919 86.87647156 -0.09186126 93.63612932 -0.09408849 C97.21396735 -0.09539001 100.79178429 -0.09844046 104.36961555 -0.10573006 C108.36759495 -0.1138093 112.36553786 -0.11398902 116.36352539 -0.11352539 C117.54460373 -0.11712067 118.72568207 -0.12071594 119.94255066 -0.12442017 C131.01677761 -0.11051818 131.01677761 -0.11051818 136 1 C137.49024236 3.98048471 137.12737084 6.67926982 137.12939453 10.00415039 C137.13202301 11.08482536 137.13202301 11.08482536 137.13470459 12.18733215 C137.13911413 14.57413119 137.13618858 16.96085643 137.1328125 19.34765625 C137.13348572 21.00150059 137.1344559 22.65534484 137.13571167 24.30918884 C137.13718736 27.77685487 137.13503792 31.24449516 137.13037109 34.7121582 C137.12466943 39.16688869 137.12795638 43.62155899 137.13394356 48.07628727 C137.13754884 51.49137327 137.13641082 54.90644488 137.13381577 58.3215313 C137.13314663 59.96465499 137.13397444 61.60777998 137.13629532 63.25090218 C137.13882178 65.54238495 137.13498158 67.83376878 137.12939453 70.12524414 C137.12859894 71.43159317 137.12780334 72.7379422 137.12698364 74.08387756 C137 77 137 77 136 78 C134.47482373 78.10666316 132.94474812 78.14406526 131.4158783 78.15390015 C130.42478058 78.16250061 129.43368286 78.17110107 128.41255188 78.17996216 C127.31597763 78.18422211 126.21940338 78.18848206 125.08959961 78.19287109 C123.94162903 78.20104858 122.79365845 78.20922607 121.61090088 78.21765137 C117.79138723 78.24257151 113.97191098 78.25904095 110.15234375 78.2734375 C108.85037111 78.27876118 107.54839848 78.28408485 106.20697212 78.28956985 C100.73310281 78.31081737 95.25924571 78.32994519 89.78534603 78.34119225 C81.94579735 78.35740554 74.10674645 78.39050325 66.26738542 78.44759309 C60.75391008 78.48637021 55.24056737 78.50583451 49.72695929 78.51111281 C46.43557965 78.51475802 43.14485039 78.52920478 39.85359001 78.55921555 C36.17406421 78.59084398 32.49578825 78.59090594 28.81616211 78.58349609 C27.73375748 78.59990143 26.65135284 78.61630676 25.53614807 78.63320923 C17.23425732 78.56489044 12.45237015 76.30109258 6.50390625 70.61328125 C5.86324219 69.85402344 5.22257813 69.09476562 4.5625 68.3125 C3.90378906 67.54550781 3.24507813 66.77851563 2.56640625 65.98828125 C-0.14647186 62.54475267 -0.12231875 60.42546442 -0.11352539 56.08154297 C-0.11344986 54.84040741 -0.11337433 53.59927185 -0.11329651 52.32052612 C-0.1081895 50.96107951 -0.1029735 49.60163331 -0.09765625 48.2421875 C-0.09579142 46.85499116 -0.09436782 45.46779416 -0.09336853 44.08059692 C-0.08954848 40.42765488 -0.07972255 36.77475252 -0.06866455 33.12182617 C-0.05843944 29.39502499 -0.05386855 25.66821741 -0.04882812 21.94140625 C-0.03809983 14.62758606 -0.02102954 7.31379859 0 0 Z " fill="#561488" transform="translate(0,314)"/>
<path d="M0 0 C0.99420456 -0.00315216 1.98840912 -0.00630432 3.01274109 -0.009552 C4.60515373 -0.00651566 4.60515373 -0.00651566 6.22973633 -0.00341797 C7.87671257 -0.00485306 7.87671257 -0.00485306 9.55696106 -0.00631714 C11.87261004 -0.00699653 14.18826095 -0.00515904 16.50390625 -0.00097656 C20.05904375 0.00439042 23.6140558 -0.0009376 27.16918945 -0.00732422 C29.41853869 -0.0066637 31.66788785 -0.00538307 33.91723633 -0.00341797 C34.98491745 -0.0054422 36.05259857 -0.00746643 37.15263367 -0.009552 C38.62975578 -0.00482376 38.62975578 -0.00482376 40.13671875 0 C41.43980232 0.00119339 41.43980232 0.00119339 42.76921082 0.00241089 C44.87426758 0.12939453 44.87426758 0.12939453 46.87426758 1.12939453 C47.64900613 28.83903433 48.09099935 56.42874367 46.87426758 84.12939453 C40.16066342 84.30240608 33.44681497 84.46120625 26.73266602 84.61157227 C24.4640395 84.6638836 22.195477 84.71907564 19.92700195 84.77758789 C1.8633307 85.24044934 -16.07972466 84.89760528 -34.12573242 84.12939453 C-34.26528971 75.94039876 -34.37163208 67.75190695 -34.43660545 59.56201267 C-34.46780366 55.75827839 -34.51005994 51.9553628 -34.57836914 48.15209961 C-34.6439812 44.47563169 -34.67952486 40.79994675 -34.69499588 37.12293816 C-34.70600818 35.72633488 -34.72751241 34.32977027 -34.76011276 32.9335041 C-34.99080278 22.63534927 -33.44520662 16.83676013 -26.44393921 9.32496643 C-19.74668525 2.61719266 -9.2520799 0.00845002 0 0 Z " fill="#A95BEB" transform="translate(34.125732421875,0.87060546875)"/>
<path d="M0 0 C19.92516517 -0.04010881 19.92516517 -0.04010881 28.38867188 -0.04882812 C34.17408154 -0.05481653 39.95947545 -0.06191676 45.74487305 -0.07543945 C50.4067712 -0.08626847 55.06865246 -0.09227686 59.73056221 -0.09487724 C61.51324288 -0.09673147 63.29592259 -0.10035203 65.07859612 -0.10573006 C67.5666596 -0.11294069 70.05465243 -0.11399093 72.54272461 -0.11352539 C73.28718842 -0.11712067 74.03165222 -0.12071594 74.79867554 -0.12442017 C79.88594784 -0.11405216 79.88594784 -0.11405216 81 1 C81.09925773 2.95824698 81.12799414 4.92009897 81.12939453 6.88085938 C81.13254669 8.13886353 81.13569885 9.39686768 81.13894653 10.69299316 C81.13715675 12.07657913 81.1351058 13.46016478 81.1328125 14.84375 C81.13348559 16.25240089 81.13445565 17.66105166 81.13571167 19.06970215 C81.13718842 22.02548323 81.13503483 24.98123414 81.13037109 27.93701172 C81.12467381 31.73374584 81.12795293 35.53040928 81.13394356 39.32714081 C81.13754979 42.23696428 81.1364103 45.14677088 81.13381577 48.05659485 C81.13314667 49.456894 81.13397432 50.85719467 81.13629532 52.25749207 C81.13882283 54.21137464 81.13429033 56.16526255 81.12939453 58.11914062 C81.12859894 59.23309204 81.12780334 60.34704346 81.12698364 61.49475098 C81 64 81 64 80 65 C77.50600935 65.12497615 75.03831671 65.1860288 72.54272461 65.20532227 C71.76229294 65.21522186 70.98186127 65.22512146 70.17778015 65.23532104 C67.58599937 65.26702775 64.99420023 65.2917295 62.40234375 65.31640625 C60.61014822 65.33696787 58.81795763 65.35796413 57.02577209 65.37937927 C52.2993468 65.43468176 47.57287715 65.48405483 42.84637451 65.53222656 C37.18038816 65.591194 31.51448319 65.65746677 25.84856415 65.72252655 C17.23242563 65.82063889 8.6162359 65.90942449 0 66 C0 44.22 0 22.44 0 0 Z " fill="#531085" transform="translate(0,117)"/>
<path d="M0 0 C7.52969652 -0.02526648 15.0593822 -0.04283141 22.58911133 -0.05493164 C25.15291757 -0.0599737 27.71672091 -0.06680714 30.28051758 -0.07543945 C33.95655021 -0.08751064 37.63254498 -0.09322942 41.30859375 -0.09765625 C43.03981728 -0.10539818 43.03981728 -0.10539818 44.80601501 -0.11329651 C45.86703934 -0.11337204 46.92806366 -0.11344757 48.02124023 -0.11352539 C48.96055893 -0.115746 49.89987762 -0.11796661 50.86766052 -0.12025452 C53 0 53 0 54 1 C54.38120618 4.72002689 54.43016314 8.47083338 54.55859375 12.20703125 C54.60084579 13.39843216 54.64309784 14.58983307 54.68663025 15.81733704 C55.18681103 31.61823688 55.11270159 47.42349124 55.06866455 63.23040771 C55.05821574 67.39513622 55.05382204 71.55987139 55.04882812 75.72460938 C55.03827833 83.81642372 55.02133889 91.90820692 55 100 C54.34 100 53.68 100 53 100 C53 117.49 53 134.98 53 153 C-36.76 153 -126.52 153 -219 153 C-219 152.67 -219 152.34 -219 152 C-129.57 152 -40.14 152 52 152 C52 102.5 52 53 52 2 C36.16 2 20.32 2 4 2 C2.02 1.01 2.02 1.01 0 0 Z " fill="#A568DE" transform="translate(219,128)"/>
<path d="M0 0 C1.32 0 2.64 0 4 0 C4 0.66 4 1.32 4 2 C2.68 2 1.36 2 0 2 C0.33 2.99 0.66 3.98 1 5 C1.08081312 7.33357568 1.09733312 9.6695142 1.08229065 12.00444031 C1.07906152 12.72162525 1.07583239 13.43881018 1.07250541 14.177728 C1.06041751 16.58688216 1.04104732 18.99592307 1.02172852 21.4050293 C1.01158708 23.1295853 1.00189326 24.85414398 0.99261475 26.57870483 C0.96612017 31.26643108 0.9333434 35.95409507 0.89946485 40.64177299 C0.86513528 45.5384884 0.83654701 50.4352372 0.80735779 55.33198547 C0.75119133 64.60735652 0.6898384 73.88268577 0.62663645 83.15801126 C0.55494248 93.71650111 0.48900858 104.27502446 0.42356598 114.83355463 C0.28880069 136.55574809 0.14601715 158.27787906 0 180 C20.46 180 40.92 180 62 180 C62 180.33 62 180.66 62 181 C53.80309439 181.0231271 45.60620232 181.04091696 37.40927219 181.05181217 C33.60348423 181.0570402 29.79771852 181.06413638 25.99194336 181.07543945 C22.32207456 181.0862712 18.65222722 181.09227744 14.98234367 181.09487724 C13.57925008 181.09673097 12.17615771 181.1003506 10.7730732 181.10573006 C8.8143032 181.11294419 6.8555118 181.11340809 4.89672852 181.11352539 C3.22127708 181.11685631 3.22127708 181.11685631 1.51197815 181.12025452 C-1 181 -1 181 -2 180 C-2.10150554 177.71369657 -2.13078311 175.42418911 -2.13371277 173.13563538 C-2.13597833 172.40931976 -2.13824388 171.68300415 -2.14057809 170.93467897 C-2.14694633 168.48255987 -2.14608693 166.03049564 -2.14526367 163.57836914 C-2.1482534 161.82779366 -2.15165549 160.07721884 -2.15544128 158.3266449 C-2.16430434 153.55812335 -2.16662036 148.78961973 -2.16725707 144.02109075 C-2.16820423 140.04718727 -2.17188027 136.07328801 -2.17542917 132.09938616 C-2.18358245 122.72779499 -2.1860126 113.35621344 -2.18530273 103.98461914 C-2.18470167 94.30128413 -2.19525713 84.61800478 -2.2110464 74.93468386 C-2.22409993 66.63491078 -2.22948756 58.33515595 -2.22884732 50.03537267 C-2.2285917 45.07215162 -2.23147844 40.10898 -2.24202538 35.14576912 C-2.2516697 30.47960781 -2.2518109 25.81354355 -2.24450874 21.14737892 C-2.24345832 19.43084319 -2.24585269 17.71430154 -2.2518692 15.99777603 C-2.25952789 13.66218403 -2.25498546 11.32693236 -2.24723816 8.99134827 C-2.24778293 7.68185746 -2.24832769 6.37236666 -2.24888897 5.02319431 C-2 2 -2 2 0 0 Z " fill="#5B2D80" transform="translate(115,1)"/>
<path d="M0 0 C7.38728102 -0.02526692 14.77455098 -0.0428316 22.16186523 -0.05493164 C24.67716895 -0.05997363 27.19246972 -0.06680703 29.70776367 -0.07543945 C33.31429775 -0.08751094 36.92079323 -0.09322949 40.52734375 -0.09765625 C42.22575661 -0.10539818 42.22575661 -0.10539818 43.95848083 -0.11329651 C45.51998619 -0.11340981 45.51998619 -0.11340981 47.11303711 -0.11352539 C48.03459091 -0.115746 48.95614471 -0.11796661 49.90562439 -0.12025452 C52 0 52 0 53 1 C53.09802498 4.04664691 53.12990985 7.07063761 53.12025452 10.11769104 C53.12110894 11.08634737 53.12196337 12.05500371 53.12284368 13.05301327 C53.12450143 16.32515544 53.11897231 19.59724725 53.11352539 22.86938477 C53.11324356 25.20447793 53.11340118 27.53957119 53.1139679 29.87466431 C53.11425602 36.23598016 53.10835694 42.59727734 53.10139394 48.95858884 C53.09579343 54.92639161 53.09477212 60.89419362 53.09374207 66.86199867 C53.09155124 78.68559054 53.08489032 90.50917554 53.07543945 102.33276367 C53.06626613 113.82104457 53.05918491 125.3093236 53.05493164 136.79760742 C53.05466892 137.50526265 53.05440619 138.21291788 53.05413551 138.94201721 C53.05283051 142.49197145 53.05156679 146.0419257 53.05032361 149.59187996 C53.03995003 179.06125775 53.02225676 208.5306288 53 238 C52.34 238.33 51.68 238.66 51 239 C48.525 236.525 48.525 236.525 46 234 C48 235 50 236 52 237 C51.9922694 235.84857938 51.9922694 235.84857938 51.98438263 234.67389774 C51.85641108 215.58786867 51.7312482 196.50182282 51.60884857 177.41575718 C51.54958481 168.18414501 51.48951114 158.95253972 51.42724609 149.72094727 C51.09568124 100.47991464 50.92454078 51.24216803 51 2 C50.06933857 2.00256381 50.06933857 2.00256381 49.11987591 2.00517941 C47.81599029 2.00877138 47.81599029 2.00877138 46.48576355 2.01243591 C45.52699216 2.01508737 44.56822077 2.01773882 43.5803957 2.02047062 C41.48732176 2.02621595 39.39424759 2.03187819 37.30117321 2.03745937 C32.9792237 2.04906662 28.65729081 2.06116394 24.33535767 2.07791138 C21.40715093 2.08918664 18.47900595 2.09437687 15.55078125 2.09765625 C14.58313843 2.10277222 13.61549561 2.10788818 12.61853027 2.11315918 C11.68520874 2.11328003 10.75188721 2.11340088 9.7902832 2.11352539 C8.9842012 2.115746 8.1781192 2.11796661 7.34761047 2.12025452 C4.81913526 1.99073534 2.46773852 1.55273825 0 1 C0 0.67 0 0.34 0 0 Z " fill="#A083BB" transform="translate(338,128)"/>
<path d="M0 0 C1.03688965 0.01047363 2.0737793 0.02094727 3.14208984 0.03173828 C4.26357422 0.03818359 5.38505859 0.04462891 6.54052734 0.05126953 C7.71615234 0.06802734 8.89177734 0.08478516 10.10302734 0.10205078 C11.87806641 0.11558594 11.87806641 0.11558594 13.68896484 0.12939453 C16.61885257 0.15302266 19.54834075 0.18596564 22.47802734 0.22705078 C22.47802734 0.88705078 22.47802734 1.54705078 22.47802734 2.22705078 C10.10302734 2.72205078 10.10302734 2.72205078 -2.52197266 3.22705078 C-2.52197266 55.69705078 -2.52197266 108.16705078 -2.52197266 162.22705078 C-1.53197266 162.55705078 -0.54197266 162.88705078 0.47802734 163.22705078 C0.97302734 165.70205078 0.97302734 165.70205078 1.47802734 168.22705078 C-3.39697266 164.47705078 -3.39697266 164.47705078 -4.52197266 162.22705078 C-4.6205202 160.12846734 -4.65269018 158.02667514 -4.65568542 155.92578125 C-4.65795098 155.27211515 -4.66021654 154.61844906 -4.66255075 153.9449749 C-4.66890387 151.74471163 -4.66806055 149.54450974 -4.66723633 147.34423828 C-4.67022696 145.77085286 -4.67362927 144.19746818 -4.67741394 142.62408447 C-4.68626689 138.3432095 -4.68859257 134.0623545 -4.68922973 129.78147125 C-4.69017765 126.21262588 -4.69385451 122.6437852 -4.69740182 119.07494164 C-4.70555095 110.65884541 -4.7079856 102.24275988 -4.70727539 93.82666016 C-4.70667415 85.13225447 -4.71723411 76.43791074 -4.73301905 67.74352074 C-4.74607335 60.28873082 -4.75146019 52.8339612 -4.75081998 45.37915993 C-4.75056441 40.92232716 -4.75344794 36.46554945 -4.76399803 32.00872803 C-4.77364385 27.81942066 -4.77378254 23.6302214 -4.7664814 19.44091034 C-4.76543123 17.90014235 -4.7678239 16.35936774 -4.77384186 14.81861115 C-4.78150397 12.72171836 -4.77695598 10.62520433 -4.76921082 8.52832031 C-4.76975558 7.35286652 -4.77030035 6.17741272 -4.77086163 4.96633911 C-4.44013027 1.32628812 -3.68040297 0.33134315 0 0 Z " fill="#5B317D" transform="translate(309.52197265625,127.77294921875)"/>
<path d="M0 0 C37.62 0 75.24 0 114 0 C114 0.66 114 1.32 114 2 C77.04 1.67 40.08 1.34 2 1 C2.33 1.99 2.66 2.98 3 4 C3.0615909 6.31584284 3.05811138 8.63357517 3.02172852 10.94995117 C3.01212097 11.65264633 3.00251343 12.35534149 2.99261475 13.07933044 C2.95964889 15.40064591 2.91930749 17.72177177 2.87890625 20.04296875 C2.85460277 21.65293205 2.83075932 23.26290236 2.80735779 24.87287903 C2.74453954 29.10948671 2.67546649 33.34597031 2.60510254 37.5824585 C2.5343987 41.90582633 2.469594 46.2292821 2.40429688 50.55273438 C2.27531365 59.03525363 2.13972432 67.5176509 2 76 C1.34 76 0.68 76 0 76 C0 50.92 0 25.84 0 0 Z " fill="#A665DD" transform="translate(170,316)"/>
<path d="M0 0 C7.52969652 -0.02526648 15.0593822 -0.04283141 22.58911133 -0.05493164 C25.15291757 -0.0599737 27.71672091 -0.06680714 30.28051758 -0.07543945 C33.95655021 -0.08751064 37.63254498 -0.09322942 41.30859375 -0.09765625 C42.46274277 -0.10281754 43.61689178 -0.10797882 44.80601501 -0.11329651 C46.3975515 -0.11340981 46.3975515 -0.11340981 48.02124023 -0.11352539 C48.96055893 -0.115746 49.89987762 -0.11796661 50.86766052 -0.12025452 C53 0 53 0 54 1 C54.38120618 4.72002689 54.43016314 8.47083338 54.55859375 12.20703125 C54.60084579 13.39843216 54.64309784 14.58983307 54.68663025 15.81733704 C55.18681103 31.61823688 55.11270159 47.42349124 55.06866455 63.23040771 C55.05821574 67.39513622 55.05382204 71.55987139 55.04882812 75.72460938 C55.03827833 83.81642372 55.02133889 91.90820692 55 100 C54.34 100 53.68 100 53 100 C53.00523682 99.24082275 53.01047363 98.48164551 53.01586914 97.69946289 C53.037062 94.15381753 53.04979145 90.60818555 53.0625 87.0625 C53.07506836 85.27295898 53.07506836 85.27295898 53.08789062 83.44726562 C53.10500045 77.03108274 52.94557137 70.68253317 52.5 64.28125 C51.67137857 52.01689804 51.89378016 39.72277525 51.9375 27.4375 C51.94252739 24.96158945 51.9470881 22.48567791 51.95117188 20.00976562 C51.96207382 14.00648836 51.97871274 8.00324897 52 2 C51.11130219 2.00666183 51.11130219 2.00666183 50.20465088 2.01345825 C44.0404298 2.05769201 37.87625378 2.08786664 31.71191406 2.10986328 C29.41111418 2.1199232 27.1103271 2.13357262 24.80957031 2.15087891 C21.5032231 2.17512735 18.19704488 2.18648323 14.890625 2.1953125 C13.3466806 2.21079636 13.3466806 2.21079636 11.77154541 2.22659302 C10.81085144 2.22674408 9.85015747 2.22689514 8.86035156 2.22705078 C8.01651917 2.231492 7.17268677 2.23593323 6.30328369 2.24050903 C3.79458533 1.97855059 2.16671042 1.25924304 0 0 Z " fill="#9C63CA" transform="translate(219,128)"/>
<path d="M0 0 C0.33 0 0.66 0 1 0 C1.81121314 11.58193391 2.27105995 23.14473819 2.5625 34.75 C2.60587047 36.37761083 2.64948926 38.00521506 2.69335938 39.6328125 C2.99816309 51.12746501 2.37731581 61.29281563 1 73 C20.14 73 39.28 73 59 73 C59 73.33 59 73.66 59 74 C51.45512064 74.15361109 43.91015145 74.3017928 36.36502934 74.4429636 C32.86186429 74.50868092 29.35875701 74.5762974 25.85571289 74.64819336 C21.83228789 74.7306875 17.80874879 74.80503044 13.78515625 74.87890625 C12.52163834 74.90594131 11.25812042 74.93297638 9.95631409 74.96083069 C8.795186 74.98092697 7.63405792 75.00102325 6.43774414 75.02172852 C5.40960098 75.04171402 4.38145782 75.06169952 3.32215881 75.08229065 C1 75 1 75 0 74 C-0.24599208 70.99420007 -0.42456881 68.01163721 -0.5546875 65 C-0.59673309 64.06591309 -0.63877869 63.13182617 -0.68209839 62.16943359 C-1.10662123 51.84197001 -1.15117516 41.51743822 -1.13037109 31.18261719 C-1.12491093 27.94722003 -1.1304091 24.71195602 -1.13671875 21.4765625 C-1.13605946 19.40104136 -1.13478141 17.32552031 -1.1328125 15.25 C-1.13483673 14.29174316 -1.13686096 13.33348633 -1.13894653 12.34619141 C-1.13579437 11.45335449 -1.13264221 10.56051758 -1.12939453 9.640625 C-1.12859894 8.86235352 -1.12780334 8.08408203 -1.12698364 7.28222656 C-0.987812 4.78094995 -0.54370653 2.44264856 0 0 Z " fill="#A052CA" transform="translate(210,22)"/>
<path d="M0 0 C0.85244293 -0.00350464 1.70488586 -0.00700928 2.5831604 -0.01062012 C5.40830579 -0.01943883 8.23320154 -0.01358413 11.05834961 -0.00683594 C13.0255081 -0.00818342 14.99266626 -0.01012465 16.95982361 -0.01263428 C21.0899471 -0.01558645 25.2199842 -0.01128812 29.35009766 -0.00195312 C34.62341555 0.00938909 39.89652868 0.00291587 45.16983891 -0.00909805 C49.23725396 -0.01635896 53.30462131 -0.01400847 57.37203789 -0.00884247 C59.31474266 -0.00751492 61.25745186 -0.00912209 63.20015144 -0.01380157 C87.46226504 -0.05937996 87.46226504 -0.05937996 96.64819336 5.25878906 C94.19845032 6.48366058 92.97286606 6.24675097 90.27319336 5.94628906 C89.50233398 5.86765625 88.73147461 5.78902344 87.93725586 5.70800781 C85.64819336 5.25878906 85.64819336 5.25878906 83.75585556 4.24811745 C81.50660457 3.19232784 80.10051342 3.00029436 77.63653564 2.98031616 C76.45451317 2.96357094 76.45451317 2.96357094 75.24861145 2.94648743 C73.96575508 2.94324715 73.96575508 2.94324715 72.65698242 2.93994141 C71.74931625 2.92989578 70.84165009 2.91985016 69.90647888 2.90950012 C66.90893176 2.87863085 63.91147412 2.86162249 60.91381836 2.84472656 C58.83444446 2.82601794 56.75507817 2.80644476 54.67572021 2.78604126 C49.20461514 2.73468185 43.73348544 2.69507643 38.26226807 2.65789795 C32.67860809 2.61788224 27.09505088 2.56677879 21.51147461 2.51660156 C10.55711968 2.41979713 -0.39729323 2.33540673 -11.35180664 2.25878906 C-7.52749351 -0.29075303 -4.43149782 -0.02226675 0 0 Z " fill="#DCC0F2" transform="translate(277.351806640625,0.7412109375)"/>
<path d="M0 0 C2.64 0 5.28 0 8 0 C7.34 0.66 6.68 1.32 6 2 C4.68 2 3.36 2 2 2 C2.00222061 2.86364166 2.00444122 3.72728333 2.00672913 4.61709595 C2.02679098 12.76796937 2.04200419 20.91883447 2.05181217 29.06972694 C2.0570241 33.25987428 2.064091 37.45000116 2.07543945 41.64013672 C2.08632847 45.68609187 2.09228957 49.73202738 2.09487724 53.77799606 C2.09672066 55.31930221 2.10032037 56.86060731 2.10573006 58.40190506 C2.11302035 60.56564889 2.11398758 62.72931222 2.11352539 64.89306641 C2.115746 66.12328522 2.11796661 67.35350403 2.12025452 68.6210022 C2.00579651 71.83712539 1.60871646 74.84367429 1 78 C0.67 78 0.34 78 0 78 C0 52.26 0 26.52 0 0 Z " fill="#9957CE" transform="translate(210,129)"/>
<path d="M0 0 C0.66 0 1.32 0 2 0 C2 20.46 2 40.92 2 62 C2.99 62.33 3.98 62.66 5 63 C5.33 64.65 5.66 66.3 6 68 C1.125 64.25 1.125 64.25 0 62 C-0.0913666 60.02893455 -0.11751968 58.05472084 -0.11352539 56.08154297 C-0.11344986 54.84040741 -0.11337433 53.59927185 -0.11329651 52.32052612 C-0.1081895 50.96107951 -0.1029735 49.60163331 -0.09765625 48.2421875 C-0.09579142 46.85499116 -0.09436782 45.46779416 -0.09336853 44.08059692 C-0.08954848 40.42765488 -0.07972255 36.77475252 -0.06866455 33.12182617 C-0.05843944 29.39502499 -0.05386855 25.66821741 -0.04882812 21.94140625 C-0.03809983 14.62758606 -0.02102954 7.31379859 0 0 Z " fill="#AE8FC8" transform="translate(305,228)"/>
<path d="M0 0 C1.00828354 0.0028299 2.01656708 0.00565979 3.05540466 0.00857544 C6.24409358 0.01968073 9.43249116 0.04476705 12.62109375 0.0703125 C14.79621987 0.08035478 16.97135044 0.08947844 19.14648438 0.09765625 C24.45061855 0.11958834 29.75458532 0.15296839 35.05859375 0.1953125 C34.72859375 0.8553125 34.39859375 1.5153125 34.05859375 2.1953125 C32.13611816 2.23289673 32.13611816 2.23289673 30.17480469 2.27124023 C25.41868125 2.36542845 20.66269996 2.4656214 15.90673828 2.56762695 C13.84850388 2.61093259 11.79023457 2.65261079 9.73193359 2.69262695 C6.77300496 2.75043525 3.81425135 2.81409946 0.85546875 2.87890625 C-0.06445862 2.89561874 -0.98438599 2.91233124 -1.93218994 2.92955017 C-3.22307526 2.959468 -3.22307526 2.959468 -4.54003906 2.98999023 C-5.67255096 3.01330666 -5.67255096 3.01330666 -6.82794189 3.03709412 C-8.96953364 3.19741818 -10.86829551 3.65311766 -12.94140625 4.1953125 C-14.69027606 4.26155757 -16.44143373 4.28083845 -18.19140625 4.2578125 C-19.0834375 4.24878906 -19.97546875 4.23976563 -20.89453125 4.23046875 C-21.57 4.21886719 -22.24546875 4.20726562 -22.94140625 4.1953125 C-16.10959321 -0.35922953 -7.95902138 -0.08560377 0 0 Z " fill="#9663C4" transform="translate(39.94140625,0.8046875)"/>
<path d="M0 0 C0.33 0 0.66 0 1 0 C1.13277344 0.88042969 1.26554688 1.76085938 1.40234375 2.66796875 C1.57894531 3.82941406 1.75554687 4.99085937 1.9375 6.1875 C2.11152344 7.33605469 2.28554687 8.48460938 2.46484375 9.66796875 C2.79156156 11.70220447 3.16771925 13.73025584 3.62890625 15.73828125 C4 18 4 18 3 21 C2.67 24.96 2.34 28.92 2 33 C21.14 33 40.28 33 60 33 C60 33.33 60 33.66 60 34 C52.45512064 34.15361109 44.91015145 34.3017928 37.36502934 34.4429636 C33.86186429 34.50868092 30.35875701 34.5762974 26.85571289 34.64819336 C22.83228789 34.7306875 18.80874879 34.80503044 14.78515625 34.87890625 C12.88987938 34.91945885 12.88987938 34.91945885 10.95631409 34.96083069 C9.21462196 34.99097511 9.21462196 34.99097511 7.43774414 35.02172852 C6.40960098 35.04171402 5.38145782 35.06169952 4.32215881 35.08229065 C2 35 2 35 1 34 C0.84260734 32.59338497 0.74905111 31.17950393 0.68359375 29.765625 C0.64161865 28.88672607 0.59964355 28.00782715 0.55639648 27.10229492 C0.51716064 26.1610376 0.4779248 25.21978027 0.4375 24.25 C0.3950415 23.30165283 0.35258301 22.35330566 0.30883789 21.3762207 C0.00761211 14.24559442 -0.11917247 7.13710655 0 0 Z " fill="#9C5AD4" transform="translate(209,62)"/>
<path d="M0 0 C18.48 0 36.96 0 56 0 C56 4.62 56 9.24 56 14 C55.67 14 55.34 14 55 14 C55 12.02 55 10.04 55 8 C53.68 7.67 52.36 7.34 51 7 C51.33 6.34 51.66 5.68 52 5 C52.99 5 53.98 5 55 5 C55 4.01 55 3.02 55 2 C36.85 1.67 18.7 1.34 0 1 C0 0.67 0 0.34 0 0 Z " fill="#4C1277" transform="translate(333,130)"/>
<path d="M0 0 C2.35450823 1.17725412 4.68443263 2.37073434 7 3.625 C10.05602743 5.27776981 10.05602743 5.27776981 14 5 C14.2475 5.9075 14.495 6.815 14.75 7.75 C16.05377867 11.13982455 17.4413433 12.52663186 20 15 C20 15.99 20 16.98 20 18 C16.48576095 16.50862993 14.31523631 14.49442087 11.6875 11.75 C8.86751611 8.85531455 6.03612377 6.0947825 2.9375 3.5 C1.968125 2.675 0.99875 1.85 0 1 C0 0.67 0 0.34 0 0 Z " fill="#7C509D" transform="translate(332,315)"/>
<path d="M0 0 C10.89 0 21.78 0 33 0 C28.2774509 3.14836607 23.18957737 2.55574111 17.625 2.75 C16.48804688 2.80542969 15.35109375 2.86085937 14.1796875 2.91796875 C12.53226563 2.98177734 12.53226563 2.98177734 10.8515625 3.046875 C9.84947754 3.08651367 8.84739258 3.12615234 7.81494141 3.16699219 C4.81956558 2.989296 2.70385993 2.2631622 0 1 C0 0.67 0 0.34 0 0 Z " fill="#916CB7" transform="translate(218,1)"/>
<path d="M0 0 C5.59455163 1.35625494 8.76952557 5.50397889 12 10 C13.4375 13.5 13.4375 13.5 14 16 C13.34 16 12.68 16 12 16 C12 15.34 12 14.68 12 14 C11.34 14 10.68 14 10 14 C9.5978125 13.0409375 9.5978125 13.0409375 9.1875 12.0625 C8.11332248 9.66868314 8.11332248 9.66868314 5 9 C4.33333333 7.66666667 3.66666667 6.33333333 3 5 C2.01 4.67 1.02 4.34 0 4 C0 2.68 0 1.36 0 0 Z " fill="#C090E8" transform="translate(374,7)"/>
<path d="M0 0 C0.33 0 0.66 0 1 0 C1.13277344 0.88042969 1.26554688 1.76085938 1.40234375 2.66796875 C1.57894531 3.82941406 1.75554687 4.99085937 1.9375 6.1875 C2.11152344 7.33605469 2.28554687 8.48460938 2.46484375 9.66796875 C2.79156156 11.70220447 3.16771925 13.73025584 3.62890625 15.73828125 C4 18 4 18 3 21 C2.77674186 23.05893621 2.59294241 25.12233653 2.4375 27.1875 C2.35371094 28.27417969 2.26992187 29.36085938 2.18359375 30.48046875 C2.12300781 31.31191406 2.06242188 32.14335938 2 33 C3.32 33.33 4.64 33.66 6 34 C4.0625 34.5625 4.0625 34.5625 2 35 C0.45230773 33.45230773 0.78332486 31.91981702 0.68359375 29.765625 C0.64161865 28.88672607 0.59964355 28.00782715 0.55639648 27.10229492 C0.51716064 26.1610376 0.4779248 25.21978027 0.4375 24.25 C0.3950415 23.30165283 0.35258301 22.35330566 0.30883789 21.3762207 C0.00761211 14.24559442 -0.11917247 7.13710655 0 0 Z " fill="#955FB9" transform="translate(209,62)"/>
<path d="M0 0 C2.82868857 1.29603412 4.9701021 2.69189598 7.234375 4.8203125 C8.09482422 5.62275391 8.09482422 5.62275391 8.97265625 6.44140625 C9.55917969 6.99699219 10.14570313 7.55257813 10.75 8.125 C11.35199219 8.68832031 11.95398438 9.25164062 12.57421875 9.83203125 C14.05334151 11.21724146 15.52719641 12.6080729 17 14 C16.01 14.495 16.01 14.495 15 15 C12.9375 14.25 12.9375 14.25 11 13 C10.67 12.01 10.34 11.02 10 10 C8.34561387 9.30341637 6.67745682 8.63903117 5 8 C2.1576014 5.78924553 1.18059694 3.36016052 0 0 Z " fill="#BB90E6" transform="translate(295,326)"/>
<path d="M0 0 C1.32 0.66 2.64 1.32 4 2 C3.34 2 2.68 2 2 2 C2.33 2.99 2.66 3.98 3 5 C2.75316617 7.75489248 2.4470867 10.45239581 2.0625 13.1875 C1.96259766 13.93708984 1.86269531 14.68667969 1.75976562 15.45898438 C1.51260359 17.30681482 1.25710389 19.1535266 1 21 C0.34 21 -0.32 21 -1 21 C-1.10808032 13.90272572 -0.93854006 7.03905044 0 0 Z " fill="#A45EC3" transform="translate(210,0)"/>
<path d="M0 0 C9.37152485 6.82392586 9.37152485 6.82392586 12 10 C12 10.99 12 11.98 12 13 C9.12206249 11.70989008 7.03816083 10.42638194 5 8 C4.67 7.01 4.34 6.02 4 5 C1.98491642 4.26676204 1.98491642 4.26676204 0 4 C0 2.68 0 1.36 0 0 Z " fill="#BB87E3" transform="translate(343,369)"/>
<path d="M0 0 C3.36166422 0.59498482 5.21159678 1.74364158 7.75 4 C8.67039062 4.804375 8.67039062 4.804375 9.609375 5.625 C10.06828125 6.07875 10.5271875 6.5325 11 7 C11 7.33 11 7.66 11 8 C9.02 8 7.04 8 5 8 C4.731875 7.38125 4.46375 6.7625 4.1875 6.125 C3.04443152 3.7004767 3.04443152 3.7004767 0 2 C0 1.34 0 0.68 0 0 Z " fill="#A870DD" transform="translate(357,384)"/>
<path d="M0 0 C0.33 0 0.66 0 1 0 C1 4.95 1 9.9 1 15 C-0.32 14.67 -1.64 14.34 -3 14 C-3 11 -3 11 -1 8 C-0.95977609 5.6670134 -0.95679753 3.33293334 -1 1 C-0.67 0.67 -0.34 0.34 0 0 Z " fill="#A561DD" transform="translate(388,80)"/>
<path d="M0 0 C2.2873727 1.1013276 4.41458797 2.26290944 6.5625 3.625 C8.96905979 5.24566059 8.96905979 5.24566059 12 5 C12.33 7.31 12.66 9.62 13 12 C7.90789714 8.43679155 3.77339973 4.95258714 0 0 Z " fill="#946EAE" transform="translate(363,343)"/>
<path d="M0 0 C0.33 0 0.66 0 1 0 C1.12375 0.78375 1.2475 1.5675 1.375 2.375 C1.79117993 5.14057822 1.79117993 5.14057822 4 7 C3.34 7 2.68 7 2 7 C2 12.61 2 18.22 2 24 C1.34 24 0.68 24 0 24 C0 19.38 0 14.76 0 10 C-0.66 9.67 -1.32 9.34 -2 9 C-1.34 9 -0.68 9 0 9 C0 6.03 0 3.06 0 0 Z " fill="#A756DF" transform="translate(211,12)"/>
<path d="M0 0 C4.82675589 2.41337795 7.69984002 5.86062408 11 10 C10.01 10.33 9.02 10.66 8 11 C7.67 10.34 7.34 9.68 7 9 C6.01 8.34 5.02 7.68 4 7 C4 6.34 4 5.68 4 5 C2.68 4.67 1.36 4.34 0 4 C0 2.68 0 1.36 0 0 Z " fill="#BF92E6" transform="translate(284,316)"/>
<path d="M0 0 C7.06608191 -0.13794954 13.97360585 0.25194283 21 1 C21 1.33 21 1.66 21 2 C18.43802188 2.22278071 15.87652444 2.42862563 13.3125 2.625 C12.2306543 2.72167969 12.2306543 2.72167969 11.12695312 2.8203125 C6.87409746 3.13102342 3.81256429 2.97020088 0 1 C0 0.67 0 0.34 0 0 Z " fill="#9B64C9" transform="translate(218,1)"/>
<path d="M0 0 C3.77727089 1.81309003 7.37269822 3.9073259 11 6 C10.67 7.32 10.34 8.64 10 10 C8.33037631 8.52417192 6.6643694 7.04425109 5 5.5625 C4.071875 4.73878906 3.14375 3.91507812 2.1875 3.06640625 C1.465625 2.38449219 0.74375 1.70257813 0 1 C0 0.67 0 0.34 0 0 Z " fill="#946EB0" transform="translate(332,315)"/>
<path d="M0 0 C2.97 0.495 2.97 0.495 6 1 C6 2.32 6 3.64 6 5 C6.99 5.33 7.98 5.66 9 6 C8.34 6.66 7.68 7.32 7 8 C5.68 8 4.36 8 3 8 C2.67 7.01 2.34 6.02 2 5 C2.99 5 3.98 5 5 5 C5 4.01 5 3.02 5 2 C3.35 1.67 1.7 1.34 0 1 C0 0.67 0 0.34 0 0 Z " fill="#A861E1" transform="translate(368,6)"/>
<path d="M0 0 C0.33 0 0.66 0 1 0 C1.36504603 1.58086048 1.71660506 3.16483907 2.0625 4.75 C2.25972656 5.63171875 2.45695312 6.5134375 2.66015625 7.421875 C3.00186378 10.01413902 2.9540953 11.57932392 2 14 C1.01 14.495 1.01 14.495 0 15 C0 10.05 0 5.1 0 0 Z " fill="#AB44DF" transform="translate(79,36)"/>
<path d="M0 0 C0.66 0.33 1.32 0.66 2 1 C-0.74395564 3.94721162 -3.38337216 6.19168608 -7 8 C-7.66 7.67 -8.32 7.34 -9 7 C-7.87720538 6.01830524 -6.75168527 5.03972702 -5.625 4.0625 C-4.68527344 3.24458984 -4.68527344 3.24458984 -3.7265625 2.41015625 C-2 1 -2 1 0 0 Z " fill="#A06CCD" transform="translate(15,5)"/>
<path d="M0 0 C0 0.66 0 1.32 0 2 C-6.75 3.125 -6.75 3.125 -9 2 C-9 1.34 -9 0.68 -9 0 C-5.93109813 -1.53445094 -3.29905734 -0.54984289 0 0 Z " fill="#B376E4" transform="translate(221,2)"/>
<path d="M0 0 C3.37462715 0.54723683 5.08235 1.0549 8 3 C8 3.99 8 4.98 8 6 C4.08597051 4.73058503 2.20927127 3.48832306 0 0 Z " fill="#744D98" transform="translate(7,384)"/>
<path d="M0 0 C2.31 0.66 4.62 1.32 7 2 C7.33 3.65 7.66 5.3 8 7 C6.66382648 6.02471263 5.3311249 5.04466681 4 4.0625 C3.2575 3.51722656 2.515 2.97195313 1.75 2.41015625 C1.1725 1.94480469 0.595 1.47945313 0 1 C0 0.67 0 0.34 0 0 Z " fill="#8561A6" transform="translate(376,355)"/>
<path d="M0 0 C3.98175544 2.10148204 6.35039045 4.36905358 9 8 C6.03 7.505 6.03 7.505 3 7 C2.87625 6.360625 2.7525 5.72125 2.625 5.0625 C2.315625 4.0415625 2.315625 4.0415625 2 3 C1.34 2.67 0.68 2.34 0 2 C0 1.34 0 0.68 0 0 Z " fill="#D3ACED" transform="translate(303,333)"/>
<path d="M0 0 C1.98 1.65 3.96 3.3 6 5 C3 6 3 6 0 6 C0 4.02 0 2.04 0 0 Z " fill="#BD8DEA" transform="translate(331,358)"/>
<path d="M0 0 C3.36720387 1.39332574 4.9859524 2.9789286 7 6 C4.625 5.8125 4.625 5.8125 2 5 C0.6875 2.4375 0.6875 2.4375 0 0 Z " fill="#BF9BDD" transform="translate(361,386)"/>
<path d="M0 0 C2.64 1.98 5.28 3.96 8 6 C4.79604584 6 2.90600261 5.25664978 0 4 C0 2.68 0 1.36 0 0 Z " fill="#D6B3EE" transform="translate(343,369)"/>
</svg>
